<?xml version="1.0" encoding="utf-8" standalone="no"?>
<!DOCTYPE svg PUBLIC "-//W3C//DTD SVG 1.1//EN"
  "http://www.w3.org/Graphics/SVG/1.1/DTD/svg11.dtd">
<svg height="379.004375pt" version="1.1" viewBox="0 0 256.000938 379.004375" width="256.000938pt" xmlns="http://www.w3.org/2000/svg" xmlns:xlink="http://www.w3.org/1999/xlink">
 <metadata>
  <rdf:RDF xmlns:cc="http://creativecommons.org/ns#" xmlns:dc="http://purl.org/dc/elements/1.1/" xmlns:rdf="http://www.w3.org/1999/02/22-rdf-syntax-ns#">
   <cc:Work>
    <dc:type rdf:resource="http://purl.org/dc/dcmitype/StillImage"/>
    <dc:date>2021-09-09T16:20:57.146331</dc:date>
    <dc:format>image/svg+xml</dc:format>
    <dc:creator>
     <cc:Agent>
      <dc:title>Matplotlib v3.4.3, https://matplotlib.org/</dc:title>
     </cc:Agent>
    </dc:creator>
   </cc:Work>
  </rdf:RDF>
 </metadata>
 <defs>
  <style type="text/css">*{stroke-linecap:butt;stroke-linejoin:round;}</style>
 </defs>
 <g id="figure_1">
  <g id="patch_1">
   <path d="M 0 379.004375 
L 256.000937 379.004375 
L 256.000937 0 
L 0 0 
z
" style="fill:none;"/>
  </g>
  <g id="axes_1">
   <g id="patch_2">
    <path d="M 69.660938 279 
L 237.060937 279 
L 237.060937 7.2 
L 69.660938 7.2 
z
" style="fill:#ffffff;"/>
   </g>
   <g id="patch_3">
    <path clip-path="url(#p24cc79eed5)" d="M 69.660938 278.313636 
L 69.660938 278.313636 
L 69.660938 275.568182 
L 69.660938 275.568182 
z
" style="fill:#1f77b4;"/>
   </g>
   <g id="patch_4">
    <path clip-path="url(#p24cc79eed5)" d="M 69.660938 275.568182 
L 119.880937 275.568182 
L 119.880937 272.822727 
L 69.660938 272.822727 
z
" style="fill:#1f77b4;"/>
   </g>
   <g id="patch_5">
    <path clip-path="url(#p24cc79eed5)" d="M 69.660938 272.822727 
L 137.525802 272.822727 
L 137.525802 270.077273 
L 69.660938 270.077273 
z
" style="fill:#1f77b4;"/>
   </g>
   <g id="patch_6">
    <path clip-path="url(#p24cc79eed5)" d="M 69.660938 270.077273 
L 131.83808 270.077273 
L 131.83808 267.331818 
L 69.660938 267.331818 
z
" style="fill:#1f77b4;"/>
   </g>
   <g id="patch_7">
    <path clip-path="url(#p24cc79eed5)" d="M 69.660938 267.331818 
L 143.513879 267.331818 
L 143.513879 264.586364 
L 69.660938 264.586364 
z
" style="fill:#1f77b4;"/>
   </g>
   <g id="patch_8">
    <path clip-path="url(#p24cc79eed5)" d="M 69.660938 264.586364 
L 173.289509 264.586364 
L 173.289509 261.840909 
L 69.660938 261.840909 
z
" style="fill:#1f77b4;"/>
   </g>
   <g id="patch_9">
    <path clip-path="url(#p24cc79eed5)" d="M 69.660938 261.840909 
L 141.403795 261.840909 
L 141.403795 259.095455 
L 69.660938 259.095455 
z
" style="fill:#1f77b4;"/>
   </g>
   <g id="patch_10">
    <path clip-path="url(#p24cc79eed5)" d="M 69.660938 259.095455 
L 129.446652 259.095455 
L 129.446652 256.35 
L 69.660938 256.35 
z
" style="fill:#1f77b4;"/>
   </g>
   <g id="patch_11">
    <path clip-path="url(#p24cc79eed5)" d="M 69.660938 256.35 
L 139.14773 256.35 
L 139.14773 253.604545 
L 69.660938 253.604545 
z
" style="fill:#1f77b4;"/>
   </g>
   <g id="patch_12">
    <path clip-path="url(#p24cc79eed5)" d="M 69.660938 253.604545 
L 171.413879 253.604545 
L 171.413879 250.859091 
L 69.660938 250.859091 
z
" style="fill:#1f77b4;"/>
   </g>
   <g id="patch_13">
    <path clip-path="url(#p24cc79eed5)" d="M 69.660938 250.859091 
L 180.208107 250.859091 
L 180.208107 248.113636 
L 69.660938 248.113636 
z
" style="fill:#1f77b4;"/>
   </g>
   <g id="patch_14">
    <path clip-path="url(#p24cc79eed5)" d="M 69.660938 248.113636 
L 167.310937 248.113636 
L 167.310937 245.368182 
L 69.660938 245.368182 
z
" style="fill:#1f77b4;"/>
   </g>
   <g id="patch_15">
    <path clip-path="url(#p24cc79eed5)" d="M 69.660938 245.368182 
L 152.032366 245.368182 
L 152.032366 242.622727 
L 69.660938 242.622727 
z
" style="fill:#1f77b4;"/>
   </g>
   <g id="patch_16">
    <path clip-path="url(#p24cc79eed5)" d="M 69.660938 242.622727 
L 177.660937 242.622727 
L 177.660937 239.877273 
L 69.660938 239.877273 
z
" style="fill:#1f77b4;"/>
   </g>
   <g id="patch_17">
    <path clip-path="url(#p24cc79eed5)" d="M 69.660938 239.877273 
L 122.924574 239.877273 
L 122.924574 237.131818 
L 69.660938 237.131818 
z
" style="fill:#1f77b4;"/>
   </g>
   <g id="patch_18">
    <path clip-path="url(#p24cc79eed5)" d="M 69.660938 237.131818 
L 139.410937 237.131818 
L 139.410937 234.386364 
L 69.660938 234.386364 
z
" style="fill:#1f77b4;"/>
   </g>
   <g id="patch_19">
    <path clip-path="url(#p24cc79eed5)" d="M 69.660938 234.386364 
L 170.798437 234.386364 
L 170.798437 231.640909 
L 69.660938 231.640909 
z
" style="fill:#1f77b4;"/>
   </g>
   <g id="patch_20">
    <path clip-path="url(#p24cc79eed5)" d="M 69.660938 231.640909 
L 201.818832 231.640909 
L 201.818832 228.895455 
L 69.660938 228.895455 
z
" style="fill:#1f77b4;"/>
   </g>
   <g id="patch_21">
    <path clip-path="url(#p24cc79eed5)" d="M 69.660938 228.895455 
L 194.015223 228.895455 
L 194.015223 226.15 
L 69.660938 226.15 
z
" style="fill:#1f77b4;"/>
   </g>
   <g id="patch_22">
    <path clip-path="url(#p24cc79eed5)" d="M 69.660938 226.15 
L 177.540937 226.15 
L 177.540937 223.404545 
L 69.660938 223.404545 
z
" style="fill:#1f77b4;"/>
   </g>
   <g id="patch_23">
    <path clip-path="url(#p24cc79eed5)" d="M 69.660938 223.404545 
L 204.12979 223.404545 
L 204.12979 220.659091 
L 69.660938 220.659091 
z
" style="fill:#1f77b4;"/>
   </g>
   <g id="patch_24">
    <path clip-path="url(#p24cc79eed5)" d="M 69.660938 220.659091 
L 190.344658 220.659091 
L 190.344658 217.913636 
L 69.660938 217.913636 
z
" style="fill:#1f77b4;"/>
   </g>
   <g id="patch_25">
    <path clip-path="url(#p24cc79eed5)" d="M 69.660938 217.913636 
L 194.015223 217.913636 
L 194.015223 215.168182 
L 69.660938 215.168182 
z
" style="fill:#1f77b4;"/>
   </g>
   <g id="patch_26">
    <path clip-path="url(#p24cc79eed5)" d="M 69.660938 215.168182 
L 135.739885 215.168182 
L 135.739885 212.422727 
L 69.660938 212.422727 
z
" style="fill:#1f77b4;"/>
   </g>
   <g id="patch_27">
    <path clip-path="url(#p24cc79eed5)" d="M 69.660938 212.422727 
L 179.3368 212.422727 
L 179.3368 209.677273 
L 69.660938 209.677273 
z
" style="fill:#1f77b4;"/>
   </g>
   <g id="patch_28">
    <path clip-path="url(#p24cc79eed5)" d="M 69.660938 209.677273 
L 146.922476 209.677273 
L 146.922476 206.931818 
L 69.660938 206.931818 
z
" style="fill:#1f77b4;"/>
   </g>
   <g id="patch_29">
    <path clip-path="url(#p24cc79eed5)" d="M 69.660938 206.931818 
L 125.460938 206.931818 
L 125.460938 204.186364 
L 69.660938 204.186364 
z
" style="fill:#1f77b4;"/>
   </g>
   <g id="patch_30">
    <path clip-path="url(#p24cc79eed5)" d="M 69.660938 204.186364 
L 159.799399 204.186364 
L 159.799399 201.440909 
L 69.660938 201.440909 
z
" style="fill:#1f77b4;"/>
   </g>
   <g id="patch_31">
    <path clip-path="url(#p24cc79eed5)" d="M 69.660938 201.440909 
L 163.823438 201.440909 
L 163.823438 198.695455 
L 69.660938 198.695455 
z
" style="fill:#1f77b4;"/>
   </g>
   <g id="patch_32">
    <path clip-path="url(#p24cc79eed5)" d="M 69.660938 198.695455 
L 179.3368 198.695455 
L 179.3368 195.95 
L 69.660938 195.95 
z
" style="fill:#1f77b4;"/>
   </g>
   <g id="patch_33">
    <path clip-path="url(#p24cc79eed5)" d="M 69.660938 195.95 
L 143.513879 195.95 
L 143.513879 193.204545 
L 69.660938 193.204545 
z
" style="fill:#1f77b4;"/>
   </g>
   <g id="patch_34">
    <path clip-path="url(#p24cc79eed5)" d="M 69.660938 193.204545 
L 170.100937 193.204545 
L 170.100937 190.459091 
L 69.660938 190.459091 
z
" style="fill:#1f77b4;"/>
   </g>
   <g id="patch_35">
    <path clip-path="url(#p24cc79eed5)" d="M 69.660938 190.459091 
L 164.278329 190.459091 
L 164.278329 187.713636 
L 69.660938 187.713636 
z
" style="fill:#1f77b4;"/>
   </g>
   <g id="patch_36">
    <path clip-path="url(#p24cc79eed5)" d="M 69.660938 187.713636 
L 133.771576 187.713636 
L 133.771576 184.968182 
L 69.660938 184.968182 
z
" style="fill:#1f77b4;"/>
   </g>
   <g id="patch_37">
    <path clip-path="url(#p24cc79eed5)" d="M 69.660938 184.968182 
L 133.432366 184.968182 
L 133.432366 182.222727 
L 69.660938 182.222727 
z
" style="fill:#1f77b4;"/>
   </g>
   <g id="patch_38">
    <path clip-path="url(#p24cc79eed5)" d="M 69.660938 182.222727 
L 131.334622 182.222727 
L 131.334622 179.477273 
L 69.660938 179.477273 
z
" style="fill:#1f77b4;"/>
   </g>
   <g id="patch_39">
    <path clip-path="url(#p24cc79eed5)" d="M 69.660938 179.477273 
L 190.560937 179.477273 
L 190.560937 176.731818 
L 69.660938 176.731818 
z
" style="fill:#1f77b4;"/>
   </g>
   <g id="patch_40">
    <path clip-path="url(#p24cc79eed5)" d="M 69.660938 176.731818 
L 151.214784 176.731818 
L 151.214784 173.986364 
L 69.660938 173.986364 
z
" style="fill:#1f77b4;"/>
   </g>
   <g id="patch_41">
    <path clip-path="url(#p24cc79eed5)" d="M 69.660938 173.986364 
L 100.660937 173.986364 
L 100.660937 171.240909 
L 69.660938 171.240909 
z
" style="fill:#1f77b4;"/>
   </g>
   <g id="patch_42">
    <path clip-path="url(#p24cc79eed5)" d="M 69.660938 171.240909 
L 149.721807 171.240909 
L 149.721807 168.495455 
L 69.660938 168.495455 
z
" style="fill:#1f77b4;"/>
   </g>
   <g id="patch_43">
    <path clip-path="url(#p24cc79eed5)" d="M 69.660938 168.495455 
L 163.823438 168.495455 
L 163.823438 165.75 
L 69.660938 165.75 
z
" style="fill:#1f77b4;"/>
   </g>
   <g id="patch_44">
    <path clip-path="url(#p24cc79eed5)" d="M 69.660938 165.75 
L 141.403795 165.75 
L 141.403795 163.004545 
L 69.660938 163.004545 
z
" style="fill:#1f77b4;"/>
   </g>
   <g id="patch_45">
    <path clip-path="url(#p24cc79eed5)" d="M 69.660938 163.004545 
L 178.834851 163.004545 
L 178.834851 160.259091 
L 69.660938 160.259091 
z
" style="fill:#1f77b4;"/>
   </g>
   <g id="patch_46">
    <path clip-path="url(#p24cc79eed5)" d="M 69.660938 160.259091 
L 169.054688 160.259091 
L 169.054688 157.513636 
L 69.660938 157.513636 
z
" style="fill:#1f77b4;"/>
   </g>
   <g id="patch_47">
    <path clip-path="url(#p24cc79eed5)" d="M 69.660938 157.513636 
L 117.949399 157.513636 
L 117.949399 154.768182 
L 69.660938 154.768182 
z
" style="fill:#1f77b4;"/>
   </g>
   <g id="patch_48">
    <path clip-path="url(#p24cc79eed5)" d="M 69.660938 154.768182 
L 107.325938 154.768182 
L 107.325938 152.022727 
L 69.660938 152.022727 
z
" style="fill:#1f77b4;"/>
   </g>
   <g id="patch_49">
    <path clip-path="url(#p24cc79eed5)" d="M 69.660938 152.022727 
L 116.742188 152.022727 
L 116.742188 149.277273 
L 69.660938 149.277273 
z
" style="fill:#1f77b4;"/>
   </g>
   <g id="patch_50">
    <path clip-path="url(#p24cc79eed5)" d="M 69.660938 149.277273 
L 179.517187 149.277273 
L 179.517187 146.531818 
L 69.660938 146.531818 
z
" style="fill:#1f77b4;"/>
   </g>
   <g id="patch_51">
    <path clip-path="url(#p24cc79eed5)" d="M 69.660938 146.531818 
L 141.947301 146.531818 
L 141.947301 143.786364 
L 69.660938 143.786364 
z
" style="fill:#1f77b4;"/>
   </g>
   <g id="patch_52">
    <path clip-path="url(#p24cc79eed5)" d="M 69.660938 143.786364 
L 168.860937 143.786364 
L 168.860937 141.040909 
L 69.660938 141.040909 
z
" style="fill:#1f77b4;"/>
   </g>
   <g id="patch_53">
    <path clip-path="url(#p24cc79eed5)" d="M 69.660938 141.040909 
L 153.360937 141.040909 
L 153.360937 138.295455 
L 69.660938 138.295455 
z
" style="fill:#1f77b4;"/>
   </g>
   <g id="patch_54">
    <path clip-path="url(#p24cc79eed5)" d="M 69.660938 138.295455 
L 140.145148 138.295455 
L 140.145148 135.55 
L 69.660938 135.55 
z
" style="fill:#1f77b4;"/>
   </g>
   <g id="patch_55">
    <path clip-path="url(#p24cc79eed5)" d="M 69.660938 135.55 
L 164.849173 135.55 
L 164.849173 132.804545 
L 69.660938 132.804545 
z
" style="fill:#1f77b4;"/>
   </g>
   <g id="patch_56">
    <path clip-path="url(#p24cc79eed5)" d="M 69.660938 132.804545 
L 166.860937 132.804545 
L 166.860937 130.059091 
L 69.660938 130.059091 
z
" style="fill:#1f77b4;"/>
   </g>
   <g id="patch_57">
    <path clip-path="url(#p24cc79eed5)" d="M 69.660938 130.059091 
L 192.749173 130.059091 
L 192.749173 127.313636 
L 69.660938 127.313636 
z
" style="fill:#1f77b4;"/>
   </g>
   <g id="patch_58">
    <path clip-path="url(#p24cc79eed5)" d="M 69.660938 127.313636 
L 160.335938 127.313636 
L 160.335938 124.568182 
L 69.660938 124.568182 
z
" style="fill:#1f77b4;"/>
   </g>
   <g id="patch_59">
    <path clip-path="url(#p24cc79eed5)" d="M 69.660938 124.568182 
L 151.098775 124.568182 
L 151.098775 121.822727 
L 69.660938 121.822727 
z
" style="fill:#1f77b4;"/>
   </g>
   <g id="patch_60">
    <path clip-path="url(#p24cc79eed5)" d="M 69.660938 121.822727 
L 153.360937 121.822727 
L 153.360937 119.077273 
L 69.660938 119.077273 
z
" style="fill:#1f77b4;"/>
   </g>
   <g id="patch_61">
    <path clip-path="url(#p24cc79eed5)" d="M 69.660938 119.077273 
L 130.90484 119.077273 
L 130.90484 116.331818 
L 69.660938 116.331818 
z
" style="fill:#1f77b4;"/>
   </g>
   <g id="patch_62">
    <path clip-path="url(#p24cc79eed5)" d="M 69.660938 116.331818 
L 145.751847 116.331818 
L 145.751847 113.586364 
L 69.660938 113.586364 
z
" style="fill:#1f77b4;"/>
   </g>
   <g id="patch_63">
    <path clip-path="url(#p24cc79eed5)" d="M 69.660938 113.586364 
L 155.752366 113.586364 
L 155.752366 110.840909 
L 69.660938 110.840909 
z
" style="fill:#1f77b4;"/>
   </g>
   <g id="patch_64">
    <path clip-path="url(#p24cc79eed5)" d="M 69.660938 110.840909 
L 181.260937 110.840909 
L 181.260937 108.095455 
L 69.660938 108.095455 
z
" style="fill:#1f77b4;"/>
   </g>
   <g id="patch_65">
    <path clip-path="url(#p24cc79eed5)" d="M 69.660938 108.095455 
L 170.100937 108.095455 
L 170.100937 105.35 
L 69.660938 105.35 
z
" style="fill:#1f77b4;"/>
   </g>
   <g id="patch_66">
    <path clip-path="url(#p24cc79eed5)" d="M 69.660938 105.35 
L 158.940937 105.35 
L 158.940937 102.604545 
L 69.660938 102.604545 
z
" style="fill:#1f77b4;"/>
   </g>
   <g id="patch_67">
    <path clip-path="url(#p24cc79eed5)" d="M 69.660938 102.604545 
L 141.403795 102.604545 
L 141.403795 99.859091 
L 69.660938 99.859091 
z
" style="fill:#1f77b4;"/>
   </g>
   <g id="patch_68">
    <path clip-path="url(#p24cc79eed5)" d="M 69.660938 99.859091 
L 162.171464 99.859091 
L 162.171464 97.113636 
L 69.660938 97.113636 
z
" style="fill:#1f77b4;"/>
   </g>
   <g id="patch_69">
    <path clip-path="url(#p24cc79eed5)" d="M 69.660938 97.113636 
L 173.289509 97.113636 
L 173.289509 94.368182 
L 69.660938 94.368182 
z
" style="fill:#1f77b4;"/>
   </g>
   <g id="patch_70">
    <path clip-path="url(#p24cc79eed5)" d="M 69.660938 94.368182 
L 160.056938 94.368182 
L 160.056938 91.622727 
L 69.660938 91.622727 
z
" style="fill:#1f77b4;"/>
   </g>
   <g id="patch_71">
    <path clip-path="url(#p24cc79eed5)" d="M 69.660938 91.622727 
L 166.576727 91.622727 
L 166.576727 88.877273 
L 69.660938 88.877273 
z
" style="fill:#1f77b4;"/>
   </g>
   <g id="patch_72">
    <path clip-path="url(#p24cc79eed5)" d="M 69.660938 88.877273 
L 175.060937 88.877273 
L 175.060937 86.131818 
L 69.660938 86.131818 
z
" style="fill:#1f77b4;"/>
   </g>
   <g id="patch_73">
    <path clip-path="url(#p24cc79eed5)" d="M 69.660938 86.131818 
L 167.310937 86.131818 
L 167.310937 83.386364 
L 69.660938 83.386364 
z
" style="fill:#1f77b4;"/>
   </g>
   <g id="patch_74">
    <path clip-path="url(#p24cc79eed5)" d="M 69.660938 83.386364 
L 146.922476 83.386364 
L 146.922476 80.640909 
L 69.660938 80.640909 
z
" style="fill:#1f77b4;"/>
   </g>
   <g id="patch_75">
    <path clip-path="url(#p24cc79eed5)" d="M 69.660938 80.640909 
L 139.735356 80.640909 
L 139.735356 77.895455 
L 69.660938 77.895455 
z
" style="fill:#1f77b4;"/>
   </g>
   <g id="patch_76">
    <path clip-path="url(#p24cc79eed5)" d="M 69.660938 77.895455 
L 167.791972 77.895455 
L 167.791972 75.15 
L 69.660938 75.15 
z
" style="fill:#1f77b4;"/>
   </g>
   <g id="patch_77">
    <path clip-path="url(#p24cc79eed5)" d="M 69.660938 75.15 
L 149.873437 75.15 
L 149.873437 72.404545 
L 69.660938 72.404545 
z
" style="fill:#1f77b4;"/>
   </g>
   <g id="patch_78">
    <path clip-path="url(#p24cc79eed5)" d="M 69.660938 72.404545 
L 165.915937 72.404545 
L 165.915937 69.659091 
L 69.660938 69.659091 
z
" style="fill:#1f77b4;"/>
   </g>
   <g id="patch_79">
    <path clip-path="url(#p24cc79eed5)" d="M 69.660938 69.659091 
L 117.949399 69.659091 
L 117.949399 66.913636 
L 69.660938 66.913636 
z
" style="fill:#1f77b4;"/>
   </g>
   <g id="patch_80">
    <path clip-path="url(#p24cc79eed5)" d="M 69.660938 66.913636 
L 134.271464 66.913636 
L 134.271464 64.168182 
L 69.660938 64.168182 
z
" style="fill:#1f77b4;"/>
   </g>
   <g id="patch_81">
    <path clip-path="url(#p24cc79eed5)" d="M 69.660938 64.168182 
L 175.060937 64.168182 
L 175.060937 61.422727 
L 69.660938 61.422727 
z
" style="fill:#1f77b4;"/>
   </g>
   <g id="patch_82">
    <path clip-path="url(#p24cc79eed5)" d="M 69.660938 61.422727 
L 132.435937 61.422727 
L 132.435937 58.677273 
L 69.660938 58.677273 
z
" style="fill:#1f77b4;"/>
   </g>
   <g id="patch_83">
    <path clip-path="url(#p24cc79eed5)" d="M 69.660938 58.677273 
L 179.517187 58.677273 
L 179.517187 55.931818 
L 69.660938 55.931818 
z
" style="fill:#1f77b4;"/>
   </g>
   <g id="patch_84">
    <path clip-path="url(#p24cc79eed5)" d="M 69.660938 55.931818 
L 165.31808 55.931818 
L 165.31808 53.186364 
L 69.660938 53.186364 
z
" style="fill:#1f77b4;"/>
   </g>
   <g id="patch_85">
    <path clip-path="url(#p24cc79eed5)" d="M 69.660938 53.186364 
L 170.100937 53.186364 
L 170.100937 50.440909 
L 69.660938 50.440909 
z
" style="fill:#1f77b4;"/>
   </g>
   <g id="patch_86">
    <path clip-path="url(#p24cc79eed5)" d="M 69.660938 50.440909 
L 181.260937 50.440909 
L 181.260937 47.695455 
L 69.660938 47.695455 
z
" style="fill:#1f77b4;"/>
   </g>
   <g id="patch_87">
    <path clip-path="url(#p24cc79eed5)" d="M 69.660938 47.695455 
L 167.310937 47.695455 
L 167.310937 44.95 
L 69.660938 44.95 
z
" style="fill:#1f77b4;"/>
   </g>
   <g id="patch_88">
    <path clip-path="url(#p24cc79eed5)" d="M 69.660938 44.95 
L 158.284467 44.95 
L 158.284467 42.204545 
L 69.660938 42.204545 
z
" style="fill:#1f77b4;"/>
   </g>
   <g id="patch_89">
    <path clip-path="url(#p24cc79eed5)" d="M 69.660938 42.204545 
L 185.109213 42.204545 
L 185.109213 39.459091 
L 69.660938 39.459091 
z
" style="fill:#1f77b4;"/>
   </g>
   <g id="patch_90">
    <path clip-path="url(#p24cc79eed5)" d="M 69.660938 39.459091 
L 181.260937 39.459091 
L 181.260937 36.713636 
L 69.660938 36.713636 
z
" style="fill:#1f77b4;"/>
   </g>
   <g id="patch_91">
    <path clip-path="url(#p24cc79eed5)" d="M 69.660938 36.713636 
L 200.314596 36.713636 
L 200.314596 33.968182 
L 69.660938 33.968182 
z
" style="fill:#1f77b4;"/>
   </g>
   <g id="patch_92">
    <path clip-path="url(#p24cc79eed5)" d="M 69.660938 33.968182 
L 221.11808 33.968182 
L 221.11808 31.222727 
L 69.660938 31.222727 
z
" style="fill:#1f77b4;"/>
   </g>
   <g id="patch_93">
    <path clip-path="url(#p24cc79eed5)" d="M 69.660938 31.222727 
L 201.818832 31.222727 
L 201.818832 28.477273 
L 69.660938 28.477273 
z
" style="fill:#1f77b4;"/>
   </g>
   <g id="patch_94">
    <path clip-path="url(#p24cc79eed5)" d="M 69.660938 28.477273 
L 195.210938 28.477273 
L 195.210938 25.731818 
L 69.660938 25.731818 
z
" style="fill:#1f77b4;"/>
   </g>
   <g id="patch_95">
    <path clip-path="url(#p24cc79eed5)" d="M 69.660938 25.731818 
L 208.363795 25.731818 
L 208.363795 22.986364 
L 69.660938 22.986364 
z
" style="fill:#1f77b4;"/>
   </g>
   <g id="patch_96">
    <path clip-path="url(#p24cc79eed5)" d="M 69.660938 22.986364 
L 200.866343 22.986364 
L 200.866343 20.240909 
L 69.660938 20.240909 
z
" style="fill:#1f77b4;"/>
   </g>
   <g id="patch_97">
    <path clip-path="url(#p24cc79eed5)" d="M 69.660938 20.240909 
L 191.723437 20.240909 
L 191.723437 17.495455 
L 69.660938 17.495455 
z
" style="fill:#1f77b4;"/>
   </g>
   <g id="patch_98">
    <path clip-path="url(#p24cc79eed5)" d="M 69.660938 17.495455 
L 146.574451 17.495455 
L 146.574451 14.75 
L 69.660938 14.75 
z
" style="fill:#1f77b4;"/>
   </g>
   <g id="patch_99">
    <path clip-path="url(#p24cc79eed5)" d="M 69.660938 14.75 
L 111.510937 14.75 
L 111.510937 12.004545 
L 69.660938 12.004545 
z
" style="fill:#1f77b4;"/>
   </g>
   <g id="patch_100">
    <path clip-path="url(#p24cc79eed5)" d="M 69.660938 12.004545 
L 69.660938 12.004545 
L 69.660938 9.259091 
L 69.660938 9.259091 
z
" style="fill:#1f77b4;"/>
   </g>
   <g id="patch_101">
    <path clip-path="url(#p24cc79eed5)" d="M 69.660938 9.259091 
L 69.660938 9.259091 
L 69.660938 6.513636 
L 69.660938 6.513636 
z
" style="fill:#1f77b4;"/>
   </g>
   <g id="patch_102">
    <path clip-path="url(#p24cc79eed5)" d="M 69.660938 278.313636 
L 69.660938 278.313636 
L 69.660938 275.568182 
L 69.660938 275.568182 
z
" style="fill:#ff7f0e;"/>
   </g>
   <g id="patch_103">
    <path clip-path="url(#p24cc79eed5)" d="M 69.660938 275.568182 
L 69.660938 275.568182 
L 69.660938 272.822727 
L 69.660938 272.822727 
z
" style="fill:#ff7f0e;"/>
   </g>
   <g id="patch_104">
    <path clip-path="url(#p24cc79eed5)" d="M 69.660938 272.822727 
L 69.660938 272.822727 
L 69.660938 270.077273 
L 69.660938 270.077273 
z
" style="fill:#ff7f0e;"/>
   </g>
   <g id="patch_105">
    <path clip-path="url(#p24cc79eed5)" d="M 69.660938 270.077273 
L 69.660938 270.077273 
L 69.660938 267.331818 
L 69.660938 267.331818 
z
" style="fill:#ff7f0e;"/>
   </g>
   <g id="patch_106">
    <path clip-path="url(#p24cc79eed5)" d="M 69.660938 267.331818 
L 69.660938 267.331818 
L 69.660938 264.586364 
L 69.660938 264.586364 
z
" style="fill:#ff7f0e;"/>
   </g>
   <g id="patch_107">
    <path clip-path="url(#p24cc79eed5)" d="M 69.660938 264.586364 
L 69.660938 264.586364 
L 69.660938 261.840909 
L 69.660938 261.840909 
z
" style="fill:#ff7f0e;"/>
   </g>
   <g id="patch_108">
    <path clip-path="url(#p24cc79eed5)" d="M 69.660938 261.840909 
L 69.660938 261.840909 
L 69.660938 259.095455 
L 69.660938 259.095455 
z
" style="fill:#ff7f0e;"/>
   </g>
   <g id="patch_109">
    <path clip-path="url(#p24cc79eed5)" d="M 69.660938 259.095455 
L 69.660938 259.095455 
L 69.660938 256.35 
L 69.660938 256.35 
z
" style="fill:#ff7f0e;"/>
   </g>
   <g id="patch_110">
    <path clip-path="url(#p24cc79eed5)" d="M 69.660938 256.35 
L 69.660938 256.35 
L 69.660938 253.604545 
L 69.660938 253.604545 
z
" style="fill:#ff7f0e;"/>
   </g>
   <g id="patch_111">
    <path clip-path="url(#p24cc79eed5)" d="M 69.660938 253.604545 
L 69.660938 253.604545 
L 69.660938 250.859091 
L 69.660938 250.859091 
z
" style="fill:#ff7f0e;"/>
   </g>
   <g id="patch_112">
    <path clip-path="url(#p24cc79eed5)" d="M 69.660938 250.859091 
L 69.660938 250.859091 
L 69.660938 248.113636 
L 69.660938 248.113636 
z
" style="fill:#ff7f0e;"/>
   </g>
   <g id="patch_113">
    <path clip-path="url(#p24cc79eed5)" d="M 69.660938 248.113636 
L 69.660938 248.113636 
L 69.660938 245.368182 
L 69.660938 245.368182 
z
" style="fill:#ff7f0e;"/>
   </g>
   <g id="patch_114">
    <path clip-path="url(#p24cc79eed5)" d="M 69.660938 245.368182 
L 69.660938 245.368182 
L 69.660938 242.622727 
L 69.660938 242.622727 
z
" style="fill:#ff7f0e;"/>
   </g>
   <g id="patch_115">
    <path clip-path="url(#p24cc79eed5)" d="M 69.660938 242.622727 
L 69.660938 242.622727 
L 69.660938 239.877273 
L 69.660938 239.877273 
z
" style="fill:#ff7f0e;"/>
   </g>
   <g id="patch_116">
    <path clip-path="url(#p24cc79eed5)" d="M 69.660938 239.877273 
L 69.660938 239.877273 
L 69.660938 237.131818 
L 69.660938 237.131818 
z
" style="fill:#ff7f0e;"/>
   </g>
   <g id="patch_117">
    <path clip-path="url(#p24cc79eed5)" d="M 69.660938 237.131818 
L 69.660938 237.131818 
L 69.660938 234.386364 
L 69.660938 234.386364 
z
" style="fill:#ff7f0e;"/>
   </g>
   <g id="patch_118">
    <path clip-path="url(#p24cc79eed5)" d="M 69.660938 234.386364 
L 69.660938 234.386364 
L 69.660938 231.640909 
L 69.660938 231.640909 
z
" style="fill:#ff7f0e;"/>
   </g>
   <g id="patch_119">
    <path clip-path="url(#p24cc79eed5)" d="M 69.660938 231.640909 
L 69.660938 231.640909 
L 69.660938 228.895455 
L 69.660938 228.895455 
z
" style="fill:#ff7f0e;"/>
   </g>
   <g id="patch_120">
    <path clip-path="url(#p24cc79eed5)" d="M 69.660938 228.895455 
L 69.660938 228.895455 
L 69.660938 226.15 
L 69.660938 226.15 
z
" style="fill:#ff7f0e;"/>
   </g>
   <g id="patch_121">
    <path clip-path="url(#p24cc79eed5)" d="M 69.660938 226.15 
L 69.660938 226.15 
L 69.660938 223.404545 
L 69.660938 223.404545 
z
" style="fill:#ff7f0e;"/>
   </g>
   <g id="patch_122">
    <path clip-path="url(#p24cc79eed5)" d="M 69.660938 223.404545 
L 69.660938 223.404545 
L 69.660938 220.659091 
L 69.660938 220.659091 
z
" style="fill:#ff7f0e;"/>
   </g>
   <g id="patch_123">
    <path clip-path="url(#p24cc79eed5)" d="M 69.660938 220.659091 
L 69.660938 220.659091 
L 69.660938 217.913636 
L 69.660938 217.913636 
z
" style="fill:#ff7f0e;"/>
   </g>
   <g id="patch_124">
    <path clip-path="url(#p24cc79eed5)" d="M 69.660938 217.913636 
L 69.660938 217.913636 
L 69.660938 215.168182 
L 69.660938 215.168182 
z
" style="fill:#ff7f0e;"/>
   </g>
   <g id="patch_125">
    <path clip-path="url(#p24cc79eed5)" d="M 69.660938 215.168182 
L 69.660938 215.168182 
L 69.660938 212.422727 
L 69.660938 212.422727 
z
" style="fill:#ff7f0e;"/>
   </g>
   <g id="patch_126">
    <path clip-path="url(#p24cc79eed5)" d="M 179.3368 212.422727 
L 185.109213 212.422727 
L 185.109213 209.677273 
L 179.3368 209.677273 
z
" style="fill:#ff7f0e;"/>
   </g>
   <g id="patch_127">
    <path clip-path="url(#p24cc79eed5)" d="M 69.660938 209.677273 
L 69.660938 209.677273 
L 69.660938 206.931818 
L 69.660938 206.931818 
z
" style="fill:#ff7f0e;"/>
   </g>
   <g id="patch_128">
    <path clip-path="url(#p24cc79eed5)" d="M 125.460938 206.931818 
L 139.410937 206.931818 
L 139.410937 204.186364 
L 125.460938 204.186364 
z
" style="fill:#ff7f0e;"/>
   </g>
   <g id="patch_129">
    <path clip-path="url(#p24cc79eed5)" d="M 159.799399 204.186364 
L 179.114784 204.186364 
L 179.114784 201.440909 
L 159.799399 201.440909 
z
" style="fill:#ff7f0e;"/>
   </g>
   <g id="patch_130">
    <path clip-path="url(#p24cc79eed5)" d="M 163.823438 201.440909 
L 169.054688 201.440909 
L 169.054688 198.695455 
L 163.823438 198.695455 
z
" style="fill:#ff7f0e;"/>
   </g>
   <g id="patch_131">
    <path clip-path="url(#p24cc79eed5)" d="M 179.3368 198.695455 
L 202.426455 198.695455 
L 202.426455 195.95 
L 179.3368 195.95 
z
" style="fill:#ff7f0e;"/>
   </g>
   <g id="patch_132">
    <path clip-path="url(#p24cc79eed5)" d="M 143.513879 195.95 
L 163.207996 195.95 
L 163.207996 193.204545 
L 143.513879 193.204545 
z
" style="fill:#ff7f0e;"/>
   </g>
   <g id="patch_133">
    <path clip-path="url(#p24cc79eed5)" d="M 170.100937 193.204545 
L 186.840937 193.204545 
L 186.840937 190.459091 
L 170.100937 190.459091 
z
" style="fill:#ff7f0e;"/>
   </g>
   <g id="patch_134">
    <path clip-path="url(#p24cc79eed5)" d="M 164.278329 190.459091 
L 197.030503 190.459091 
L 197.030503 187.713636 
L 164.278329 187.713636 
z
" style="fill:#ff7f0e;"/>
   </g>
   <g id="patch_135">
    <path clip-path="url(#p24cc79eed5)" d="M 133.771576 187.713636 
L 162.265193 187.713636 
L 162.265193 184.968182 
L 133.771576 184.968182 
z
" style="fill:#ff7f0e;"/>
   </g>
   <g id="patch_136">
    <path clip-path="url(#p24cc79eed5)" d="M 133.432366 184.968182 
L 157.346652 184.968182 
L 157.346652 182.222727 
L 133.432366 182.222727 
z
" style="fill:#ff7f0e;"/>
   </g>
   <g id="patch_137">
    <path clip-path="url(#p24cc79eed5)" d="M 131.334622 182.222727 
L 157.766201 182.222727 
L 157.766201 179.477273 
L 131.334622 179.477273 
z
" style="fill:#ff7f0e;"/>
   </g>
   <g id="patch_138">
    <path clip-path="url(#p24cc79eed5)" d="M 190.560937 179.477273 
L 209.160937 179.477273 
L 209.160937 176.731818 
L 190.560937 176.731818 
z
" style="fill:#ff7f0e;"/>
   </g>
   <g id="patch_139">
    <path clip-path="url(#p24cc79eed5)" d="M 151.214784 176.731818 
L 172.676322 176.731818 
L 172.676322 173.986364 
L 151.214784 173.986364 
z
" style="fill:#ff7f0e;"/>
   </g>
   <g id="patch_140">
    <path clip-path="url(#p24cc79eed5)" d="M 100.660937 173.986364 
L 144.060937 173.986364 
L 144.060937 171.240909 
L 100.660937 171.240909 
z
" style="fill:#ff7f0e;"/>
   </g>
   <g id="patch_141">
    <path clip-path="url(#p24cc79eed5)" d="M 149.721807 171.240909 
L 164.278329 171.240909 
L 164.278329 168.495455 
L 149.721807 168.495455 
z
" style="fill:#ff7f0e;"/>
   </g>
   <g id="patch_142">
    <path clip-path="url(#p24cc79eed5)" d="M 163.823438 168.495455 
L 195.210938 168.495455 
L 195.210938 165.75 
L 163.823438 165.75 
z
" style="fill:#ff7f0e;"/>
   </g>
   <g id="patch_143">
    <path clip-path="url(#p24cc79eed5)" d="M 141.403795 165.75 
L 177.275223 165.75 
L 177.275223 163.004545 
L 141.403795 163.004545 
z
" style="fill:#ff7f0e;"/>
   </g>
   <g id="patch_144">
    <path clip-path="url(#p24cc79eed5)" d="M 178.834851 163.004545 
L 200.669633 163.004545 
L 200.669633 160.259091 
L 178.834851 160.259091 
z
" style="fill:#ff7f0e;"/>
   </g>
   <g id="patch_145">
    <path clip-path="url(#p24cc79eed5)" d="M 169.054688 160.259091 
L 195.210938 160.259091 
L 195.210938 157.513636 
L 169.054688 157.513636 
z
" style="fill:#ff7f0e;"/>
   </g>
   <g id="patch_146">
    <path clip-path="url(#p24cc79eed5)" d="M 117.949399 157.513636 
L 121.16863 157.513636 
L 121.16863 154.768182 
L 117.949399 154.768182 
z
" style="fill:#ff7f0e;"/>
   </g>
   <g id="patch_147">
    <path clip-path="url(#p24cc79eed5)" d="M 107.325938 154.768182 
L 119.880938 154.768182 
L 119.880938 152.022727 
L 107.325938 152.022727 
z
" style="fill:#ff7f0e;"/>
   </g>
   <g id="patch_148">
    <path clip-path="url(#p24cc79eed5)" d="M 116.742188 152.022727 
L 158.592187 152.022727 
L 158.592187 149.277273 
L 116.742188 149.277273 
z
" style="fill:#ff7f0e;"/>
   </g>
   <g id="patch_149">
    <path clip-path="url(#p24cc79eed5)" d="M 179.517187 149.277273 
L 200.442187 149.277273 
L 200.442187 146.531818 
L 179.517187 146.531818 
z
" style="fill:#ff7f0e;"/>
   </g>
   <g id="patch_150">
    <path clip-path="url(#p24cc79eed5)" d="M 141.947301 146.531818 
L 168.579119 146.531818 
L 168.579119 143.786364 
L 141.947301 143.786364 
z
" style="fill:#ff7f0e;"/>
   </g>
   <g id="patch_151">
    <path clip-path="url(#p24cc79eed5)" d="M 168.860937 143.786364 
L 218.460937 143.786364 
L 218.460937 141.040909 
L 168.860937 141.040909 
z
" style="fill:#ff7f0e;"/>
   </g>
   <g id="patch_152">
    <path clip-path="url(#p24cc79eed5)" d="M 153.360937 141.040909 
L 185.246652 141.040909 
L 185.246652 138.295455 
L 153.360937 138.295455 
z
" style="fill:#ff7f0e;"/>
   </g>
   <g id="patch_153">
    <path clip-path="url(#p24cc79eed5)" d="M 140.145148 138.295455 
L 166.576727 138.295455 
L 166.576727 135.55 
L 140.145148 135.55 
z
" style="fill:#ff7f0e;"/>
   </g>
   <g id="patch_154">
    <path clip-path="url(#p24cc79eed5)" d="M 164.849173 135.55 
L 194.390349 135.55 
L 194.390349 132.804545 
L 164.849173 132.804545 
z
" style="fill:#ff7f0e;"/>
   </g>
   <g id="patch_155">
    <path clip-path="url(#p24cc79eed5)" d="M 166.860937 132.804545 
L 199.260937 132.804545 
L 199.260937 130.059091 
L 166.860937 130.059091 
z
" style="fill:#ff7f0e;"/>
   </g>
   <g id="patch_156">
    <path clip-path="url(#p24cc79eed5)" d="M 192.749173 130.059091 
L 197.672702 130.059091 
L 197.672702 127.313636 
L 192.749173 127.313636 
z
" style="fill:#ff7f0e;"/>
   </g>
   <g id="patch_157">
    <path clip-path="url(#p24cc79eed5)" d="M 160.335938 127.313636 
L 167.310937 127.313636 
L 167.310937 124.568182 
L 160.335938 124.568182 
z
" style="fill:#ff7f0e;"/>
   </g>
   <g id="patch_158">
    <path clip-path="url(#p24cc79eed5)" d="M 151.098775 124.568182 
L 191.817694 124.568182 
L 191.817694 121.822727 
L 151.098775 121.822727 
z
" style="fill:#ff7f0e;"/>
   </g>
   <g id="patch_159">
    <path clip-path="url(#p24cc79eed5)" d="M 153.360937 121.822727 
L 167.310937 121.822727 
L 167.310937 119.077273 
L 153.360937 119.077273 
z
" style="fill:#ff7f0e;"/>
   </g>
   <g id="patch_160">
    <path clip-path="url(#p24cc79eed5)" d="M 130.90484 119.077273 
L 151.319474 119.077273 
L 151.319474 116.331818 
L 130.90484 116.331818 
z
" style="fill:#ff7f0e;"/>
   </g>
   <g id="patch_161">
    <path clip-path="url(#p24cc79eed5)" d="M 145.751847 116.331818 
L 172.383665 116.331818 
L 172.383665 113.586364 
L 145.751847 113.586364 
z
" style="fill:#ff7f0e;"/>
   </g>
   <g id="patch_162">
    <path clip-path="url(#p24cc79eed5)" d="M 155.752366 113.586364 
L 165.31808 113.586364 
L 165.31808 110.840909 
L 155.752366 110.840909 
z
" style="fill:#ff7f0e;"/>
   </g>
   <g id="patch_163">
    <path clip-path="url(#p24cc79eed5)" d="M 181.260937 110.840909 
L 198.000937 110.840909 
L 198.000937 108.095455 
L 181.260937 108.095455 
z
" style="fill:#ff7f0e;"/>
   </g>
   <g id="patch_164">
    <path clip-path="url(#p24cc79eed5)" d="M 170.100937 108.095455 
L 175.680937 108.095455 
L 175.680937 105.35 
L 170.100937 105.35 
z
" style="fill:#ff7f0e;"/>
   </g>
   <g id="patch_165">
    <path clip-path="url(#p24cc79eed5)" d="M 158.940937 105.35 
L 188.700937 105.35 
L 188.700937 102.604545 
L 158.940937 102.604545 
z
" style="fill:#ff7f0e;"/>
   </g>
   <g id="patch_166">
    <path clip-path="url(#p24cc79eed5)" d="M 141.403795 102.604545 
L 155.752366 102.604545 
L 155.752366 99.859091 
L 141.403795 99.859091 
z
" style="fill:#ff7f0e;"/>
   </g>
   <g id="patch_167">
    <path clip-path="url(#p24cc79eed5)" d="M 162.171464 99.859091 
L 193.008306 99.859091 
L 193.008306 97.113636 
L 162.171464 97.113636 
z
" style="fill:#ff7f0e;"/>
   </g>
   <g id="patch_168">
    <path clip-path="url(#p24cc79eed5)" d="M 173.289509 97.113636 
L 193.21808 97.113636 
L 193.21808 94.368182 
L 173.289509 94.368182 
z
" style="fill:#ff7f0e;"/>
   </g>
   <g id="patch_169">
    <path clip-path="url(#p24cc79eed5)" d="M 160.056938 94.368182 
L 183.492938 94.368182 
L 183.492938 91.622727 
L 160.056938 91.622727 
z
" style="fill:#ff7f0e;"/>
   </g>
   <g id="patch_170">
    <path clip-path="url(#p24cc79eed5)" d="M 166.576727 91.622727 
L 179.792516 91.622727 
L 179.792516 88.877273 
L 166.576727 88.877273 
z
" style="fill:#ff7f0e;"/>
   </g>
   <g id="patch_171">
    <path clip-path="url(#p24cc79eed5)" d="M 175.060937 88.877273 
L 199.860937 88.877273 
L 199.860937 86.131818 
L 175.060937 86.131818 
z
" style="fill:#ff7f0e;"/>
   </g>
   <g id="patch_172">
    <path clip-path="url(#p24cc79eed5)" d="M 167.310937 86.131818 
L 199.860937 86.131818 
L 199.860937 83.386364 
L 167.310937 83.386364 
z
" style="fill:#ff7f0e;"/>
   </g>
   <g id="patch_173">
    <path clip-path="url(#p24cc79eed5)" d="M 146.922476 83.386364 
L 185.553245 83.386364 
L 185.553245 80.640909 
L 146.922476 80.640909 
z
" style="fill:#ff7f0e;"/>
   </g>
   <g id="patch_174">
    <path clip-path="url(#p24cc79eed5)" d="M 139.735356 80.640909 
L 178.665589 80.640909 
L 178.665589 77.895455 
L 139.735356 77.895455 
z
" style="fill:#ff7f0e;"/>
   </g>
   <g id="patch_175">
    <path clip-path="url(#p24cc79eed5)" d="M 167.791972 77.895455 
L 196.654041 77.895455 
L 196.654041 75.15 
L 167.791972 75.15 
z
" style="fill:#ff7f0e;"/>
   </g>
   <g id="patch_176">
    <path clip-path="url(#p24cc79eed5)" d="M 149.873437 75.15 
L 167.310937 75.15 
L 167.310937 72.404545 
L 149.873437 72.404545 
z
" style="fill:#ff7f0e;"/>
   </g>
   <g id="patch_177">
    <path clip-path="url(#p24cc79eed5)" d="M 165.915937 72.404545 
L 186.840937 72.404545 
L 186.840937 69.659091 
L 165.915937 69.659091 
z
" style="fill:#ff7f0e;"/>
   </g>
   <g id="patch_178">
    <path clip-path="url(#p24cc79eed5)" d="M 117.949399 69.659091 
L 143.703245 69.659091 
L 143.703245 66.913636 
L 117.949399 66.913636 
z
" style="fill:#ff7f0e;"/>
   </g>
   <g id="patch_179">
    <path clip-path="url(#p24cc79eed5)" d="M 134.271464 66.913636 
L 151.892516 66.913636 
L 151.892516 64.168182 
L 134.271464 64.168182 
z
" style="fill:#ff7f0e;"/>
   </g>
   <g id="patch_180">
    <path clip-path="url(#p24cc79eed5)" d="M 175.060937 64.168182 
L 187.460938 64.168182 
L 187.460938 61.422727 
L 175.060937 61.422727 
z
" style="fill:#ff7f0e;"/>
   </g>
   <g id="patch_181">
    <path clip-path="url(#p24cc79eed5)" d="M 132.435937 61.422727 
L 170.100937 61.422727 
L 170.100937 58.677273 
L 132.435937 58.677273 
z
" style="fill:#ff7f0e;"/>
   </g>
   <g id="patch_182">
    <path clip-path="url(#p24cc79eed5)" d="M 179.517187 58.677273 
L 200.442187 58.677273 
L 200.442187 55.931818 
L 179.517187 55.931818 
z
" style="fill:#ff7f0e;"/>
   </g>
   <g id="patch_183">
    <path clip-path="url(#p24cc79eed5)" d="M 165.31808 55.931818 
L 197.203795 55.931818 
L 197.203795 53.186364 
L 165.31808 53.186364 
z
" style="fill:#ff7f0e;"/>
   </g>
   <g id="patch_184">
    <path clip-path="url(#p24cc79eed5)" d="M 170.100937 53.186364 
L 203.580938 53.186364 
L 203.580938 50.440909 
L 170.100937 50.440909 
z
" style="fill:#ff7f0e;"/>
   </g>
   <g id="patch_185">
    <path clip-path="url(#p24cc79eed5)" d="M 181.260937 50.440909 
L 199.860937 50.440909 
L 199.860937 47.695455 
L 181.260937 47.695455 
z
" style="fill:#ff7f0e;"/>
   </g>
   <g id="patch_186">
    <path clip-path="url(#p24cc79eed5)" d="M 167.310937 47.695455 
L 209.160937 47.695455 
L 209.160937 44.95 
L 167.310937 44.95 
z
" style="fill:#ff7f0e;"/>
   </g>
   <g id="patch_187">
    <path clip-path="url(#p24cc79eed5)" d="M 158.284467 44.95 
L 207.519761 44.95 
L 207.519761 42.204545 
L 158.284467 42.204545 
z
" style="fill:#ff7f0e;"/>
   </g>
   <g id="patch_188">
    <path clip-path="url(#p24cc79eed5)" d="M 185.109213 42.204545 
L 208.198869 42.204545 
L 208.198869 39.459091 
L 185.109213 39.459091 
z
" style="fill:#ff7f0e;"/>
   </g>
   <g id="patch_189">
    <path clip-path="url(#p24cc79eed5)" d="M 181.260937 39.459091 
L 203.580937 39.459091 
L 203.580937 36.713636 
L 181.260937 36.713636 
z
" style="fill:#ff7f0e;"/>
   </g>
   <g id="patch_190">
    <path clip-path="url(#p24cc79eed5)" d="M 200.314596 36.713636 
L 212.563377 36.713636 
L 212.563377 33.968182 
L 200.314596 33.968182 
z
" style="fill:#ff7f0e;"/>
   </g>
   <g id="patch_191">
    <path clip-path="url(#p24cc79eed5)" d="M 69.660938 33.968182 
L 69.660938 33.968182 
L 69.660938 31.222727 
L 69.660938 31.222727 
z
" style="fill:#ff7f0e;"/>
   </g>
   <g id="patch_192">
    <path clip-path="url(#p24cc79eed5)" d="M 69.660938 31.222727 
L 69.660938 31.222727 
L 69.660938 28.477273 
L 69.660938 28.477273 
z
" style="fill:#ff7f0e;"/>
   </g>
   <g id="patch_193">
    <path clip-path="url(#p24cc79eed5)" d="M 69.660938 28.477273 
L 69.660938 28.477273 
L 69.660938 25.731818 
L 69.660938 25.731818 
z
" style="fill:#ff7f0e;"/>
   </g>
   <g id="patch_194">
    <path clip-path="url(#p24cc79eed5)" d="M 69.660938 25.731818 
L 69.660938 25.731818 
L 69.660938 22.986364 
L 69.660938 22.986364 
z
" style="fill:#ff7f0e;"/>
   </g>
   <g id="patch_195">
    <path clip-path="url(#p24cc79eed5)" d="M 69.660938 22.986364 
L 69.660938 22.986364 
L 69.660938 20.240909 
L 69.660938 20.240909 
z
" style="fill:#ff7f0e;"/>
   </g>
   <g id="patch_196">
    <path clip-path="url(#p24cc79eed5)" d="M 69.660938 20.240909 
L 69.660938 20.240909 
L 69.660938 17.495455 
L 69.660938 17.495455 
z
" style="fill:#ff7f0e;"/>
   </g>
   <g id="patch_197">
    <path clip-path="url(#p24cc79eed5)" d="M 69.660938 17.495455 
L 69.660938 17.495455 
L 69.660938 14.75 
L 69.660938 14.75 
z
" style="fill:#ff7f0e;"/>
   </g>
   <g id="patch_198">
    <path clip-path="url(#p24cc79eed5)" d="M 69.660938 14.75 
L 69.660938 14.75 
L 69.660938 12.004545 
L 69.660938 12.004545 
z
" style="fill:#ff7f0e;"/>
   </g>
   <g id="patch_199">
    <path clip-path="url(#p24cc79eed5)" d="M 69.660938 12.004545 
L 69.660938 12.004545 
L 69.660938 9.259091 
L 69.660938 9.259091 
z
" style="fill:#ff7f0e;"/>
   </g>
   <g id="patch_200">
    <path clip-path="url(#p24cc79eed5)" d="M 69.660938 9.259091 
L 69.660938 9.259091 
L 69.660938 6.513636 
L 69.660938 6.513636 
z
" style="fill:#ff7f0e;"/>
   </g>
   <g id="patch_201">
    <path clip-path="url(#p24cc79eed5)" d="M 69.660938 278.313636 
L 237.060937 278.313636 
L 237.060937 275.568182 
L 69.660938 275.568182 
z
" style="fill:#2ca02c;"/>
   </g>
   <g id="patch_202">
    <path clip-path="url(#p24cc79eed5)" d="M 119.880937 275.568182 
L 237.060937 275.568182 
L 237.060937 272.822727 
L 119.880937 272.822727 
z
" style="fill:#2ca02c;"/>
   </g>
   <g id="patch_203">
    <path clip-path="url(#p24cc79eed5)" d="M 137.525802 272.822727 
L 237.060937 272.822727 
L 237.060937 270.077273 
L 137.525802 270.077273 
z
" style="fill:#2ca02c;"/>
   </g>
   <g id="patch_204">
    <path clip-path="url(#p24cc79eed5)" d="M 131.83808 270.077273 
L 237.060937 270.077273 
L 237.060937 267.331818 
L 131.83808 267.331818 
z
" style="fill:#2ca02c;"/>
   </g>
   <g id="patch_205">
    <path clip-path="url(#p24cc79eed5)" d="M 143.513879 267.331818 
L 237.060937 267.331818 
L 237.060937 264.586364 
L 143.513879 264.586364 
z
" style="fill:#2ca02c;"/>
   </g>
   <g id="patch_206">
    <path clip-path="url(#p24cc79eed5)" d="M 173.289509 264.586364 
L 237.060937 264.586364 
L 237.060937 261.840909 
L 173.289509 261.840909 
z
" style="fill:#2ca02c;"/>
   </g>
   <g id="patch_207">
    <path clip-path="url(#p24cc79eed5)" d="M 141.403795 261.840909 
L 237.060937 261.840909 
L 237.060937 259.095455 
L 141.403795 259.095455 
z
" style="fill:#2ca02c;"/>
   </g>
   <g id="patch_208">
    <path clip-path="url(#p24cc79eed5)" d="M 129.446652 259.095455 
L 237.060937 259.095455 
L 237.060937 256.35 
L 129.446652 256.35 
z
" style="fill:#2ca02c;"/>
   </g>
   <g id="patch_209">
    <path clip-path="url(#p24cc79eed5)" d="M 139.14773 256.35 
L 237.060937 256.35 
L 237.060937 253.604545 
L 139.14773 253.604545 
z
" style="fill:#2ca02c;"/>
   </g>
   <g id="patch_210">
    <path clip-path="url(#p24cc79eed5)" d="M 171.413879 253.604545 
L 237.060937 253.604545 
L 237.060937 250.859091 
L 171.413879 250.859091 
z
" style="fill:#2ca02c;"/>
   </g>
   <g id="patch_211">
    <path clip-path="url(#p24cc79eed5)" d="M 180.208107 250.859091 
L 237.060937 250.859091 
L 237.060937 248.113636 
L 180.208107 248.113636 
z
" style="fill:#2ca02c;"/>
   </g>
   <g id="patch_212">
    <path clip-path="url(#p24cc79eed5)" d="M 167.310937 248.113636 
L 237.060937 248.113636 
L 237.060937 245.368182 
L 167.310937 245.368182 
z
" style="fill:#2ca02c;"/>
   </g>
   <g id="patch_213">
    <path clip-path="url(#p24cc79eed5)" d="M 152.032366 245.368182 
L 237.060937 245.368182 
L 237.060937 242.622727 
L 152.032366 242.622727 
z
" style="fill:#2ca02c;"/>
   </g>
   <g id="patch_214">
    <path clip-path="url(#p24cc79eed5)" d="M 177.660937 242.622727 
L 237.060937 242.622727 
L 237.060937 239.877273 
L 177.660937 239.877273 
z
" style="fill:#2ca02c;"/>
   </g>
   <g id="patch_215">
    <path clip-path="url(#p24cc79eed5)" d="M 122.924574 239.877273 
L 237.060937 239.877273 
L 237.060937 237.131818 
L 122.924574 237.131818 
z
" style="fill:#2ca02c;"/>
   </g>
   <g id="patch_216">
    <path clip-path="url(#p24cc79eed5)" d="M 139.410937 237.131818 
L 237.060937 237.131818 
L 237.060937 234.386364 
L 139.410937 234.386364 
z
" style="fill:#2ca02c;"/>
   </g>
   <g id="patch_217">
    <path clip-path="url(#p24cc79eed5)" d="M 170.798437 234.386364 
L 237.060937 234.386364 
L 237.060937 231.640909 
L 170.798437 231.640909 
z
" style="fill:#2ca02c;"/>
   </g>
   <g id="patch_218">
    <path clip-path="url(#p24cc79eed5)" d="M 201.818832 231.640909 
L 237.060937 231.640909 
L 237.060937 228.895455 
L 201.818832 228.895455 
z
" style="fill:#2ca02c;"/>
   </g>
   <g id="patch_219">
    <path clip-path="url(#p24cc79eed5)" d="M 194.015223 228.895455 
L 237.060937 228.895455 
L 237.060937 226.15 
L 194.015223 226.15 
z
" style="fill:#2ca02c;"/>
   </g>
   <g id="patch_220">
    <path clip-path="url(#p24cc79eed5)" d="M 177.540937 226.15 
L 237.060937 226.15 
L 237.060937 223.404545 
L 177.540937 223.404545 
z
" style="fill:#2ca02c;"/>
   </g>
   <g id="patch_221">
    <path clip-path="url(#p24cc79eed5)" d="M 204.12979 223.404545 
L 237.060937 223.404545 
L 237.060937 220.659091 
L 204.12979 220.659091 
z
" style="fill:#2ca02c;"/>
   </g>
   <g id="patch_222">
    <path clip-path="url(#p24cc79eed5)" d="M 190.344658 220.659091 
L 237.060937 220.659091 
L 237.060937 217.913636 
L 190.344658 217.913636 
z
" style="fill:#2ca02c;"/>
   </g>
   <g id="patch_223">
    <path clip-path="url(#p24cc79eed5)" d="M 194.015223 217.913636 
L 237.060937 217.913636 
L 237.060937 215.168182 
L 194.015223 215.168182 
z
" style="fill:#2ca02c;"/>
   </g>
   <g id="patch_224">
    <path clip-path="url(#p24cc79eed5)" d="M 135.739885 215.168182 
L 237.060937 215.168182 
L 237.060937 212.422727 
L 135.739885 212.422727 
z
" style="fill:#2ca02c;"/>
   </g>
   <g id="patch_225">
    <path clip-path="url(#p24cc79eed5)" d="M 185.109213 212.422727 
L 237.060937 212.422727 
L 237.060937 209.677273 
L 185.109213 209.677273 
z
" style="fill:#2ca02c;"/>
   </g>
   <g id="patch_226">
    <path clip-path="url(#p24cc79eed5)" d="M 146.922476 209.677273 
L 237.060937 209.677273 
L 237.060937 206.931818 
L 146.922476 206.931818 
z
" style="fill:#2ca02c;"/>
   </g>
   <g id="patch_227">
    <path clip-path="url(#p24cc79eed5)" d="M 139.410937 206.931818 
L 237.060937 206.931818 
L 237.060937 204.186364 
L 139.410937 204.186364 
z
" style="fill:#2ca02c;"/>
   </g>
   <g id="patch_228">
    <path clip-path="url(#p24cc79eed5)" d="M 179.114784 204.186364 
L 237.060937 204.186364 
L 237.060937 201.440909 
L 179.114784 201.440909 
z
" style="fill:#2ca02c;"/>
   </g>
   <g id="patch_229">
    <path clip-path="url(#p24cc79eed5)" d="M 169.054688 201.440909 
L 237.060937 201.440909 
L 237.060937 198.695455 
L 169.054688 198.695455 
z
" style="fill:#2ca02c;"/>
   </g>
   <g id="patch_230">
    <path clip-path="url(#p24cc79eed5)" d="M 202.426455 198.695455 
L 237.060937 198.695455 
L 237.060937 195.95 
L 202.426455 195.95 
z
" style="fill:#2ca02c;"/>
   </g>
   <g id="patch_231">
    <path clip-path="url(#p24cc79eed5)" d="M 163.207996 195.95 
L 237.060937 195.95 
L 237.060937 193.204545 
L 163.207996 193.204545 
z
" style="fill:#2ca02c;"/>
   </g>
   <g id="patch_232">
    <path clip-path="url(#p24cc79eed5)" d="M 186.840937 193.204545 
L 237.060937 193.204545 
L 237.060937 190.459091 
L 186.840937 190.459091 
z
" style="fill:#2ca02c;"/>
   </g>
   <g id="patch_233">
    <path clip-path="url(#p24cc79eed5)" d="M 197.030503 190.459091 
L 237.060937 190.459091 
L 237.060937 187.713636 
L 197.030503 187.713636 
z
" style="fill:#2ca02c;"/>
   </g>
   <g id="patch_234">
    <path clip-path="url(#p24cc79eed5)" d="M 162.265193 187.713636 
L 237.060937 187.713636 
L 237.060937 184.968182 
L 162.265193 184.968182 
z
" style="fill:#2ca02c;"/>
   </g>
   <g id="patch_235">
    <path clip-path="url(#p24cc79eed5)" d="M 157.346652 184.968182 
L 237.060937 184.968182 
L 237.060937 182.222727 
L 157.346652 182.222727 
z
" style="fill:#2ca02c;"/>
   </g>
   <g id="patch_236">
    <path clip-path="url(#p24cc79eed5)" d="M 157.766201 182.222727 
L 237.060937 182.222727 
L 237.060937 179.477273 
L 157.766201 179.477273 
z
" style="fill:#2ca02c;"/>
   </g>
   <g id="patch_237">
    <path clip-path="url(#p24cc79eed5)" d="M 209.160937 179.477273 
L 237.060937 179.477273 
L 237.060937 176.731818 
L 209.160937 176.731818 
z
" style="fill:#2ca02c;"/>
   </g>
   <g id="patch_238">
    <path clip-path="url(#p24cc79eed5)" d="M 172.676322 176.731818 
L 237.060937 176.731818 
L 237.060937 173.986364 
L 172.676322 173.986364 
z
" style="fill:#2ca02c;"/>
   </g>
   <g id="patch_239">
    <path clip-path="url(#p24cc79eed5)" d="M 144.060937 173.986364 
L 237.060937 173.986364 
L 237.060937 171.240909 
L 144.060937 171.240909 
z
" style="fill:#2ca02c;"/>
   </g>
   <g id="patch_240">
    <path clip-path="url(#p24cc79eed5)" d="M 164.278329 171.240909 
L 237.060937 171.240909 
L 237.060937 168.495455 
L 164.278329 168.495455 
z
" style="fill:#2ca02c;"/>
   </g>
   <g id="patch_241">
    <path clip-path="url(#p24cc79eed5)" d="M 195.210938 168.495455 
L 237.060937 168.495455 
L 237.060937 165.75 
L 195.210938 165.75 
z
" style="fill:#2ca02c;"/>
   </g>
   <g id="patch_242">
    <path clip-path="url(#p24cc79eed5)" d="M 177.275223 165.75 
L 237.060937 165.75 
L 237.060937 163.004545 
L 177.275223 163.004545 
z
" style="fill:#2ca02c;"/>
   </g>
   <g id="patch_243">
    <path clip-path="url(#p24cc79eed5)" d="M 200.669633 163.004545 
L 237.060937 163.004545 
L 237.060937 160.259091 
L 200.669633 160.259091 
z
" style="fill:#2ca02c;"/>
   </g>
   <g id="patch_244">
    <path clip-path="url(#p24cc79eed5)" d="M 195.210938 160.259091 
L 237.060937 160.259091 
L 237.060937 157.513636 
L 195.210938 157.513636 
z
" style="fill:#2ca02c;"/>
   </g>
   <g id="patch_245">
    <path clip-path="url(#p24cc79eed5)" d="M 121.16863 157.513636 
L 237.060937 157.513636 
L 237.060937 154.768182 
L 121.16863 154.768182 
z
" style="fill:#2ca02c;"/>
   </g>
   <g id="patch_246">
    <path clip-path="url(#p24cc79eed5)" d="M 119.880937 154.768182 
L 237.060937 154.768182 
L 237.060937 152.022727 
L 119.880937 152.022727 
z
" style="fill:#2ca02c;"/>
   </g>
   <g id="patch_247">
    <path clip-path="url(#p24cc79eed5)" d="M 158.592187 152.022727 
L 237.060937 152.022727 
L 237.060937 149.277273 
L 158.592187 149.277273 
z
" style="fill:#2ca02c;"/>
   </g>
   <g id="patch_248">
    <path clip-path="url(#p24cc79eed5)" d="M 200.442187 149.277273 
L 237.060937 149.277273 
L 237.060937 146.531818 
L 200.442187 146.531818 
z
" style="fill:#2ca02c;"/>
   </g>
   <g id="patch_249">
    <path clip-path="url(#p24cc79eed5)" d="M 168.579119 146.531818 
L 237.060937 146.531818 
L 237.060937 143.786364 
L 168.579119 143.786364 
z
" style="fill:#2ca02c;"/>
   </g>
   <g id="patch_250">
    <path clip-path="url(#p24cc79eed5)" d="M 218.460938 143.786364 
L 237.060937 143.786364 
L 237.060937 141.040909 
L 218.460938 141.040909 
z
" style="fill:#2ca02c;"/>
   </g>
   <g id="patch_251">
    <path clip-path="url(#p24cc79eed5)" d="M 185.246652 141.040909 
L 237.060937 141.040909 
L 237.060937 138.295455 
L 185.246652 138.295455 
z
" style="fill:#2ca02c;"/>
   </g>
   <g id="patch_252">
    <path clip-path="url(#p24cc79eed5)" d="M 166.576727 138.295455 
L 237.060937 138.295455 
L 237.060937 135.55 
L 166.576727 135.55 
z
" style="fill:#2ca02c;"/>
   </g>
   <g id="patch_253">
    <path clip-path="url(#p24cc79eed5)" d="M 194.390349 135.55 
L 237.060937 135.55 
L 237.060937 132.804545 
L 194.390349 132.804545 
z
" style="fill:#2ca02c;"/>
   </g>
   <g id="patch_254">
    <path clip-path="url(#p24cc79eed5)" d="M 199.260937 132.804545 
L 237.060937 132.804545 
L 237.060937 130.059091 
L 199.260937 130.059091 
z
" style="fill:#2ca02c;"/>
   </g>
   <g id="patch_255">
    <path clip-path="url(#p24cc79eed5)" d="M 197.672702 130.059091 
L 237.060937 130.059091 
L 237.060937 127.313636 
L 197.672702 127.313636 
z
" style="fill:#2ca02c;"/>
   </g>
   <g id="patch_256">
    <path clip-path="url(#p24cc79eed5)" d="M 167.310937 127.313636 
L 237.060937 127.313636 
L 237.060937 124.568182 
L 167.310937 124.568182 
z
" style="fill:#2ca02c;"/>
   </g>
   <g id="patch_257">
    <path clip-path="url(#p24cc79eed5)" d="M 191.817694 124.568182 
L 237.060937 124.568182 
L 237.060937 121.822727 
L 191.817694 121.822727 
z
" style="fill:#2ca02c;"/>
   </g>
   <g id="patch_258">
    <path clip-path="url(#p24cc79eed5)" d="M 167.310937 121.822727 
L 237.060937 121.822727 
L 237.060937 119.077273 
L 167.310937 119.077273 
z
" style="fill:#2ca02c;"/>
   </g>
   <g id="patch_259">
    <path clip-path="url(#p24cc79eed5)" d="M 151.319474 119.077273 
L 237.060937 119.077273 
L 237.060937 116.331818 
L 151.319474 116.331818 
z
" style="fill:#2ca02c;"/>
   </g>
   <g id="patch_260">
    <path clip-path="url(#p24cc79eed5)" d="M 172.383665 116.331818 
L 237.060937 116.331818 
L 237.060937 113.586364 
L 172.383665 113.586364 
z
" style="fill:#2ca02c;"/>
   </g>
   <g id="patch_261">
    <path clip-path="url(#p24cc79eed5)" d="M 165.31808 113.586364 
L 237.060937 113.586364 
L 237.060937 110.840909 
L 165.31808 110.840909 
z
" style="fill:#2ca02c;"/>
   </g>
   <g id="patch_262">
    <path clip-path="url(#p24cc79eed5)" d="M 198.000937 110.840909 
L 237.060937 110.840909 
L 237.060937 108.095455 
L 198.000937 108.095455 
z
" style="fill:#2ca02c;"/>
   </g>
   <g id="patch_263">
    <path clip-path="url(#p24cc79eed5)" d="M 175.680937 108.095455 
L 237.060937 108.095455 
L 237.060937 105.35 
L 175.680937 105.35 
z
" style="fill:#2ca02c;"/>
   </g>
   <g id="patch_264">
    <path clip-path="url(#p24cc79eed5)" d="M 188.700938 105.35 
L 237.060937 105.35 
L 237.060937 102.604545 
L 188.700938 102.604545 
z
" style="fill:#2ca02c;"/>
   </g>
   <g id="patch_265">
    <path clip-path="url(#p24cc79eed5)" d="M 155.752366 102.604545 
L 237.060937 102.604545 
L 237.060937 99.859091 
L 155.752366 99.859091 
z
" style="fill:#2ca02c;"/>
   </g>
   <g id="patch_266">
    <path clip-path="url(#p24cc79eed5)" d="M 193.008306 99.859091 
L 237.060937 99.859091 
L 237.060937 97.113636 
L 193.008306 97.113636 
z
" style="fill:#2ca02c;"/>
   </g>
   <g id="patch_267">
    <path clip-path="url(#p24cc79eed5)" d="M 193.21808 97.113636 
L 237.060937 97.113636 
L 237.060937 94.368182 
L 193.21808 94.368182 
z
" style="fill:#2ca02c;"/>
   </g>
   <g id="patch_268">
    <path clip-path="url(#p24cc79eed5)" d="M 183.492937 94.368182 
L 237.060937 94.368182 
L 237.060937 91.622727 
L 183.492937 91.622727 
z
" style="fill:#2ca02c;"/>
   </g>
   <g id="patch_269">
    <path clip-path="url(#p24cc79eed5)" d="M 179.792516 91.622727 
L 237.060937 91.622727 
L 237.060937 88.877273 
L 179.792516 88.877273 
z
" style="fill:#2ca02c;"/>
   </g>
   <g id="patch_270">
    <path clip-path="url(#p24cc79eed5)" d="M 199.860937 88.877273 
L 237.060937 88.877273 
L 237.060937 86.131818 
L 199.860937 86.131818 
z
" style="fill:#2ca02c;"/>
   </g>
   <g id="patch_271">
    <path clip-path="url(#p24cc79eed5)" d="M 199.860937 86.131818 
L 237.060937 86.131818 
L 237.060937 83.386364 
L 199.860937 83.386364 
z
" style="fill:#2ca02c;"/>
   </g>
   <g id="patch_272">
    <path clip-path="url(#p24cc79eed5)" d="M 185.553245 83.386364 
L 237.060937 83.386364 
L 237.060937 80.640909 
L 185.553245 80.640909 
z
" style="fill:#2ca02c;"/>
   </g>
   <g id="patch_273">
    <path clip-path="url(#p24cc79eed5)" d="M 178.665589 80.640909 
L 237.060937 80.640909 
L 237.060937 77.895455 
L 178.665589 77.895455 
z
" style="fill:#2ca02c;"/>
   </g>
   <g id="patch_274">
    <path clip-path="url(#p24cc79eed5)" d="M 196.654041 77.895455 
L 237.060937 77.895455 
L 237.060937 75.15 
L 196.654041 75.15 
z
" style="fill:#2ca02c;"/>
   </g>
   <g id="patch_275">
    <path clip-path="url(#p24cc79eed5)" d="M 167.310937 75.15 
L 237.060937 75.15 
L 237.060937 72.404545 
L 167.310937 72.404545 
z
" style="fill:#2ca02c;"/>
   </g>
   <g id="patch_276">
    <path clip-path="url(#p24cc79eed5)" d="M 186.840937 72.404545 
L 237.060937 72.404545 
L 237.060937 69.659091 
L 186.840937 69.659091 
z
" style="fill:#2ca02c;"/>
   </g>
   <g id="patch_277">
    <path clip-path="url(#p24cc79eed5)" d="M 143.703245 69.659091 
L 237.060937 69.659091 
L 237.060937 66.913636 
L 143.703245 66.913636 
z
" style="fill:#2ca02c;"/>
   </g>
   <g id="patch_278">
    <path clip-path="url(#p24cc79eed5)" d="M 151.892516 66.913636 
L 237.060937 66.913636 
L 237.060937 64.168182 
L 151.892516 64.168182 
z
" style="fill:#2ca02c;"/>
   </g>
   <g id="patch_279">
    <path clip-path="url(#p24cc79eed5)" d="M 187.460938 64.168182 
L 237.060937 64.168182 
L 237.060937 61.422727 
L 187.460938 61.422727 
z
" style="fill:#2ca02c;"/>
   </g>
   <g id="patch_280">
    <path clip-path="url(#p24cc79eed5)" d="M 170.100937 61.422727 
L 237.060937 61.422727 
L 237.060937 58.677273 
L 170.100937 58.677273 
z
" style="fill:#2ca02c;"/>
   </g>
   <g id="patch_281">
    <path clip-path="url(#p24cc79eed5)" d="M 200.442187 58.677273 
L 237.060937 58.677273 
L 237.060937 55.931818 
L 200.442187 55.931818 
z
" style="fill:#2ca02c;"/>
   </g>
   <g id="patch_282">
    <path clip-path="url(#p24cc79eed5)" d="M 197.203795 55.931818 
L 237.060937 55.931818 
L 237.060937 53.186364 
L 197.203795 53.186364 
z
" style="fill:#2ca02c;"/>
   </g>
   <g id="patch_283">
    <path clip-path="url(#p24cc79eed5)" d="M 203.580938 53.186364 
L 237.060937 53.186364 
L 237.060937 50.440909 
L 203.580938 50.440909 
z
" style="fill:#2ca02c;"/>
   </g>
   <g id="patch_284">
    <path clip-path="url(#p24cc79eed5)" d="M 199.860937 50.440909 
L 237.060937 50.440909 
L 237.060937 47.695455 
L 199.860937 47.695455 
z
" style="fill:#2ca02c;"/>
   </g>
   <g id="patch_285">
    <path clip-path="url(#p24cc79eed5)" d="M 209.160937 47.695455 
L 237.060937 47.695455 
L 237.060937 44.95 
L 209.160937 44.95 
z
" style="fill:#2ca02c;"/>
   </g>
   <g id="patch_286">
    <path clip-path="url(#p24cc79eed5)" d="M 207.519761 44.95 
L 237.060937 44.95 
L 237.060937 42.204545 
L 207.519761 42.204545 
z
" style="fill:#2ca02c;"/>
   </g>
   <g id="patch_287">
    <path clip-path="url(#p24cc79eed5)" d="M 208.198869 42.204545 
L 237.060937 42.204545 
L 237.060937 39.459091 
L 208.198869 39.459091 
z
" style="fill:#2ca02c;"/>
   </g>
   <g id="patch_288">
    <path clip-path="url(#p24cc79eed5)" d="M 203.580937 39.459091 
L 237.060937 39.459091 
L 237.060937 36.713636 
L 203.580937 36.713636 
z
" style="fill:#2ca02c;"/>
   </g>
   <g id="patch_289">
    <path clip-path="url(#p24cc79eed5)" d="M 212.563377 36.713636 
L 237.060937 36.713636 
L 237.060937 33.968182 
L 212.563377 33.968182 
z
" style="fill:#2ca02c;"/>
   </g>
   <g id="patch_290">
    <path clip-path="url(#p24cc79eed5)" d="M 221.11808 33.968182 
L 237.060937 33.968182 
L 237.060937 31.222727 
L 221.11808 31.222727 
z
" style="fill:#2ca02c;"/>
   </g>
   <g id="patch_291">
    <path clip-path="url(#p24cc79eed5)" d="M 201.818832 31.222727 
L 237.060937 31.222727 
L 237.060937 28.477273 
L 201.818832 28.477273 
z
" style="fill:#2ca02c;"/>
   </g>
   <g id="patch_292">
    <path clip-path="url(#p24cc79eed5)" d="M 195.210938 28.477273 
L 237.060937 28.477273 
L 237.060937 25.731818 
L 195.210938 25.731818 
z
" style="fill:#2ca02c;"/>
   </g>
   <g id="patch_293">
    <path clip-path="url(#p24cc79eed5)" d="M 208.363795 25.731818 
L 237.060937 25.731818 
L 237.060937 22.986364 
L 208.363795 22.986364 
z
" style="fill:#2ca02c;"/>
   </g>
   <g id="patch_294">
    <path clip-path="url(#p24cc79eed5)" d="M 200.866343 22.986364 
L 237.060937 22.986364 
L 237.060937 20.240909 
L 200.866343 20.240909 
z
" style="fill:#2ca02c;"/>
   </g>
   <g id="patch_295">
    <path clip-path="url(#p24cc79eed5)" d="M 191.723437 20.240909 
L 237.060937 20.240909 
L 237.060937 17.495455 
L 191.723437 17.495455 
z
" style="fill:#2ca02c;"/>
   </g>
   <g id="patch_296">
    <path clip-path="url(#p24cc79eed5)" d="M 146.574451 17.495455 
L 237.060937 17.495455 
L 237.060937 14.75 
L 146.574451 14.75 
z
" style="fill:#2ca02c;"/>
   </g>
   <g id="patch_297">
    <path clip-path="url(#p24cc79eed5)" d="M 111.510937 14.75 
L 237.060937 14.75 
L 237.060937 12.004545 
L 111.510937 12.004545 
z
" style="fill:#2ca02c;"/>
   </g>
   <g id="patch_298">
    <path clip-path="url(#p24cc79eed5)" d="M 69.660938 12.004545 
L 237.060937 12.004545 
L 237.060937 9.259091 
L 69.660938 9.259091 
z
" style="fill:#2ca02c;"/>
   </g>
   <g id="patch_299">
    <path clip-path="url(#p24cc79eed5)" d="M 69.660938 9.259091 
L 237.060937 9.259091 
L 237.060937 6.513636 
L 69.660938 6.513636 
z
" style="fill:#2ca02c;"/>
   </g>
   <g id="matplotlib.axis_1">
    <g id="xtick_1">
     <g id="line2d_1">
      <defs>
       <path d="M 0 0 
L 0 3.5 
" id="m947b427003" style="stroke:#000000;stroke-width:0.8;"/>
      </defs>
      <g>
       <use style="stroke:#000000;stroke-width:0.8;" x="69.660938" xlink:href="#m947b427003" y="279"/>
      </g>
     </g>
     <g id="text_1">
      <!-- 0.0 -->
      <g transform="translate(61.709375 293.598437)scale(0.1 -0.1)">
       <defs>
        <path d="M 2034 4250 
Q 1547 4250 1301 3770 
Q 1056 3291 1056 2328 
Q 1056 1369 1301 889 
Q 1547 409 2034 409 
Q 2525 409 2770 889 
Q 3016 1369 3016 2328 
Q 3016 3291 2770 3770 
Q 2525 4250 2034 4250 
z
M 2034 4750 
Q 2819 4750 3233 4129 
Q 3647 3509 3647 2328 
Q 3647 1150 3233 529 
Q 2819 -91 2034 -91 
Q 1250 -91 836 529 
Q 422 1150 422 2328 
Q 422 3509 836 4129 
Q 1250 4750 2034 4750 
z
" id="DejaVuSans-30" transform="scale(0.015625)"/>
        <path d="M 684 794 
L 1344 794 
L 1344 0 
L 684 0 
L 684 794 
z
" id="DejaVuSans-2e" transform="scale(0.015625)"/>
       </defs>
       <use xlink:href="#DejaVuSans-30"/>
       <use x="63.623047" xlink:href="#DejaVuSans-2e"/>
       <use x="95.410156" xlink:href="#DejaVuSans-30"/>
      </g>
     </g>
    </g>
    <g id="xtick_2">
     <g id="line2d_2">
      <g>
       <use style="stroke:#000000;stroke-width:0.8;" x="103.140938" xlink:href="#m947b427003" y="279"/>
      </g>
     </g>
     <g id="text_2">
      <!-- 0.2 -->
      <g transform="translate(95.189375 293.598437)scale(0.1 -0.1)">
       <defs>
        <path d="M 1228 531 
L 3431 531 
L 3431 0 
L 469 0 
L 469 531 
Q 828 903 1448 1529 
Q 2069 2156 2228 2338 
Q 2531 2678 2651 2914 
Q 2772 3150 2772 3378 
Q 2772 3750 2511 3984 
Q 2250 4219 1831 4219 
Q 1534 4219 1204 4116 
Q 875 4013 500 3803 
L 500 4441 
Q 881 4594 1212 4672 
Q 1544 4750 1819 4750 
Q 2544 4750 2975 4387 
Q 3406 4025 3406 3419 
Q 3406 3131 3298 2873 
Q 3191 2616 2906 2266 
Q 2828 2175 2409 1742 
Q 1991 1309 1228 531 
z
" id="DejaVuSans-32" transform="scale(0.015625)"/>
       </defs>
       <use xlink:href="#DejaVuSans-30"/>
       <use x="63.623047" xlink:href="#DejaVuSans-2e"/>
       <use x="95.410156" xlink:href="#DejaVuSans-32"/>
      </g>
     </g>
    </g>
    <g id="xtick_3">
     <g id="line2d_3">
      <g>
       <use style="stroke:#000000;stroke-width:0.8;" x="136.620937" xlink:href="#m947b427003" y="279"/>
      </g>
     </g>
     <g id="text_3">
      <!-- 0.4 -->
      <g transform="translate(128.669375 293.598437)scale(0.1 -0.1)">
       <defs>
        <path d="M 2419 4116 
L 825 1625 
L 2419 1625 
L 2419 4116 
z
M 2253 4666 
L 3047 4666 
L 3047 1625 
L 3713 1625 
L 3713 1100 
L 3047 1100 
L 3047 0 
L 2419 0 
L 2419 1100 
L 313 1100 
L 313 1709 
L 2253 4666 
z
" id="DejaVuSans-34" transform="scale(0.015625)"/>
       </defs>
       <use xlink:href="#DejaVuSans-30"/>
       <use x="63.623047" xlink:href="#DejaVuSans-2e"/>
       <use x="95.410156" xlink:href="#DejaVuSans-34"/>
      </g>
     </g>
    </g>
    <g id="xtick_4">
     <g id="line2d_4">
      <g>
       <use style="stroke:#000000;stroke-width:0.8;" x="170.100937" xlink:href="#m947b427003" y="279"/>
      </g>
     </g>
     <g id="text_4">
      <!-- 0.6 -->
      <g transform="translate(162.149375 293.598437)scale(0.1 -0.1)">
       <defs>
        <path d="M 2113 2584 
Q 1688 2584 1439 2293 
Q 1191 2003 1191 1497 
Q 1191 994 1439 701 
Q 1688 409 2113 409 
Q 2538 409 2786 701 
Q 3034 994 3034 1497 
Q 3034 2003 2786 2293 
Q 2538 2584 2113 2584 
z
M 3366 4563 
L 3366 3988 
Q 3128 4100 2886 4159 
Q 2644 4219 2406 4219 
Q 1781 4219 1451 3797 
Q 1122 3375 1075 2522 
Q 1259 2794 1537 2939 
Q 1816 3084 2150 3084 
Q 2853 3084 3261 2657 
Q 3669 2231 3669 1497 
Q 3669 778 3244 343 
Q 2819 -91 2113 -91 
Q 1303 -91 875 529 
Q 447 1150 447 2328 
Q 447 3434 972 4092 
Q 1497 4750 2381 4750 
Q 2619 4750 2861 4703 
Q 3103 4656 3366 4563 
z
" id="DejaVuSans-36" transform="scale(0.015625)"/>
       </defs>
       <use xlink:href="#DejaVuSans-30"/>
       <use x="63.623047" xlink:href="#DejaVuSans-2e"/>
       <use x="95.410156" xlink:href="#DejaVuSans-36"/>
      </g>
     </g>
    </g>
    <g id="xtick_5">
     <g id="line2d_5">
      <g>
       <use style="stroke:#000000;stroke-width:0.8;" x="203.580938" xlink:href="#m947b427003" y="279"/>
      </g>
     </g>
     <g id="text_5">
      <!-- 0.8 -->
      <g transform="translate(195.629375 293.598437)scale(0.1 -0.1)">
       <defs>
        <path d="M 2034 2216 
Q 1584 2216 1326 1975 
Q 1069 1734 1069 1313 
Q 1069 891 1326 650 
Q 1584 409 2034 409 
Q 2484 409 2743 651 
Q 3003 894 3003 1313 
Q 3003 1734 2745 1975 
Q 2488 2216 2034 2216 
z
M 1403 2484 
Q 997 2584 770 2862 
Q 544 3141 544 3541 
Q 544 4100 942 4425 
Q 1341 4750 2034 4750 
Q 2731 4750 3128 4425 
Q 3525 4100 3525 3541 
Q 3525 3141 3298 2862 
Q 3072 2584 2669 2484 
Q 3125 2378 3379 2068 
Q 3634 1759 3634 1313 
Q 3634 634 3220 271 
Q 2806 -91 2034 -91 
Q 1263 -91 848 271 
Q 434 634 434 1313 
Q 434 1759 690 2068 
Q 947 2378 1403 2484 
z
M 1172 3481 
Q 1172 3119 1398 2916 
Q 1625 2713 2034 2713 
Q 2441 2713 2670 2916 
Q 2900 3119 2900 3481 
Q 2900 3844 2670 4047 
Q 2441 4250 2034 4250 
Q 1625 4250 1398 4047 
Q 1172 3844 1172 3481 
z
" id="DejaVuSans-38" transform="scale(0.015625)"/>
       </defs>
       <use xlink:href="#DejaVuSans-30"/>
       <use x="63.623047" xlink:href="#DejaVuSans-2e"/>
       <use x="95.410156" xlink:href="#DejaVuSans-38"/>
      </g>
     </g>
    </g>
    <g id="xtick_6">
     <g id="line2d_6">
      <g>
       <use style="stroke:#000000;stroke-width:0.8;" x="237.060937" xlink:href="#m947b427003" y="279"/>
      </g>
     </g>
     <g id="text_6">
      <!-- 1.0 -->
      <g transform="translate(229.109375 293.598437)scale(0.1 -0.1)">
       <defs>
        <path d="M 794 531 
L 1825 531 
L 1825 4091 
L 703 3866 
L 703 4441 
L 1819 4666 
L 2450 4666 
L 2450 531 
L 3481 531 
L 3481 0 
L 794 0 
L 794 531 
z
" id="DejaVuSans-31" transform="scale(0.015625)"/>
       </defs>
       <use xlink:href="#DejaVuSans-31"/>
       <use x="63.623047" xlink:href="#DejaVuSans-2e"/>
       <use x="95.410156" xlink:href="#DejaVuSans-30"/>
      </g>
     </g>
    </g>
    <g id="text_7">
     <!-- Proportion of reports by month -->
     <g transform="translate(76.154687 307.276562)scale(0.1 -0.1)">
      <defs>
       <path d="M 1259 4147 
L 1259 2394 
L 2053 2394 
Q 2494 2394 2734 2622 
Q 2975 2850 2975 3272 
Q 2975 3691 2734 3919 
Q 2494 4147 2053 4147 
L 1259 4147 
z
M 628 4666 
L 2053 4666 
Q 2838 4666 3239 4311 
Q 3641 3956 3641 3272 
Q 3641 2581 3239 2228 
Q 2838 1875 2053 1875 
L 1259 1875 
L 1259 0 
L 628 0 
L 628 4666 
z
" id="DejaVuSans-50" transform="scale(0.015625)"/>
       <path d="M 2631 2963 
Q 2534 3019 2420 3045 
Q 2306 3072 2169 3072 
Q 1681 3072 1420 2755 
Q 1159 2438 1159 1844 
L 1159 0 
L 581 0 
L 581 3500 
L 1159 3500 
L 1159 2956 
Q 1341 3275 1631 3429 
Q 1922 3584 2338 3584 
Q 2397 3584 2469 3576 
Q 2541 3569 2628 3553 
L 2631 2963 
z
" id="DejaVuSans-72" transform="scale(0.015625)"/>
       <path d="M 1959 3097 
Q 1497 3097 1228 2736 
Q 959 2375 959 1747 
Q 959 1119 1226 758 
Q 1494 397 1959 397 
Q 2419 397 2687 759 
Q 2956 1122 2956 1747 
Q 2956 2369 2687 2733 
Q 2419 3097 1959 3097 
z
M 1959 3584 
Q 2709 3584 3137 3096 
Q 3566 2609 3566 1747 
Q 3566 888 3137 398 
Q 2709 -91 1959 -91 
Q 1206 -91 779 398 
Q 353 888 353 1747 
Q 353 2609 779 3096 
Q 1206 3584 1959 3584 
z
" id="DejaVuSans-6f" transform="scale(0.015625)"/>
       <path d="M 1159 525 
L 1159 -1331 
L 581 -1331 
L 581 3500 
L 1159 3500 
L 1159 2969 
Q 1341 3281 1617 3432 
Q 1894 3584 2278 3584 
Q 2916 3584 3314 3078 
Q 3713 2572 3713 1747 
Q 3713 922 3314 415 
Q 2916 -91 2278 -91 
Q 1894 -91 1617 61 
Q 1341 213 1159 525 
z
M 3116 1747 
Q 3116 2381 2855 2742 
Q 2594 3103 2138 3103 
Q 1681 3103 1420 2742 
Q 1159 2381 1159 1747 
Q 1159 1113 1420 752 
Q 1681 391 2138 391 
Q 2594 391 2855 752 
Q 3116 1113 3116 1747 
z
" id="DejaVuSans-70" transform="scale(0.015625)"/>
       <path d="M 1172 4494 
L 1172 3500 
L 2356 3500 
L 2356 3053 
L 1172 3053 
L 1172 1153 
Q 1172 725 1289 603 
Q 1406 481 1766 481 
L 2356 481 
L 2356 0 
L 1766 0 
Q 1100 0 847 248 
Q 594 497 594 1153 
L 594 3053 
L 172 3053 
L 172 3500 
L 594 3500 
L 594 4494 
L 1172 4494 
z
" id="DejaVuSans-74" transform="scale(0.015625)"/>
       <path d="M 603 3500 
L 1178 3500 
L 1178 0 
L 603 0 
L 603 3500 
z
M 603 4863 
L 1178 4863 
L 1178 4134 
L 603 4134 
L 603 4863 
z
" id="DejaVuSans-69" transform="scale(0.015625)"/>
       <path d="M 3513 2113 
L 3513 0 
L 2938 0 
L 2938 2094 
Q 2938 2591 2744 2837 
Q 2550 3084 2163 3084 
Q 1697 3084 1428 2787 
Q 1159 2491 1159 1978 
L 1159 0 
L 581 0 
L 581 3500 
L 1159 3500 
L 1159 2956 
Q 1366 3272 1645 3428 
Q 1925 3584 2291 3584 
Q 2894 3584 3203 3211 
Q 3513 2838 3513 2113 
z
" id="DejaVuSans-6e" transform="scale(0.015625)"/>
       <path id="DejaVuSans-20" transform="scale(0.015625)"/>
       <path d="M 2375 4863 
L 2375 4384 
L 1825 4384 
Q 1516 4384 1395 4259 
Q 1275 4134 1275 3809 
L 1275 3500 
L 2222 3500 
L 2222 3053 
L 1275 3053 
L 1275 0 
L 697 0 
L 697 3053 
L 147 3053 
L 147 3500 
L 697 3500 
L 697 3744 
Q 697 4328 969 4595 
Q 1241 4863 1831 4863 
L 2375 4863 
z
" id="DejaVuSans-66" transform="scale(0.015625)"/>
       <path d="M 3597 1894 
L 3597 1613 
L 953 1613 
Q 991 1019 1311 708 
Q 1631 397 2203 397 
Q 2534 397 2845 478 
Q 3156 559 3463 722 
L 3463 178 
Q 3153 47 2828 -22 
Q 2503 -91 2169 -91 
Q 1331 -91 842 396 
Q 353 884 353 1716 
Q 353 2575 817 3079 
Q 1281 3584 2069 3584 
Q 2775 3584 3186 3129 
Q 3597 2675 3597 1894 
z
M 3022 2063 
Q 3016 2534 2758 2815 
Q 2500 3097 2075 3097 
Q 1594 3097 1305 2825 
Q 1016 2553 972 2059 
L 3022 2063 
z
" id="DejaVuSans-65" transform="scale(0.015625)"/>
       <path d="M 2834 3397 
L 2834 2853 
Q 2591 2978 2328 3040 
Q 2066 3103 1784 3103 
Q 1356 3103 1142 2972 
Q 928 2841 928 2578 
Q 928 2378 1081 2264 
Q 1234 2150 1697 2047 
L 1894 2003 
Q 2506 1872 2764 1633 
Q 3022 1394 3022 966 
Q 3022 478 2636 193 
Q 2250 -91 1575 -91 
Q 1294 -91 989 -36 
Q 684 19 347 128 
L 347 722 
Q 666 556 975 473 
Q 1284 391 1588 391 
Q 1994 391 2212 530 
Q 2431 669 2431 922 
Q 2431 1156 2273 1281 
Q 2116 1406 1581 1522 
L 1381 1569 
Q 847 1681 609 1914 
Q 372 2147 372 2553 
Q 372 3047 722 3315 
Q 1072 3584 1716 3584 
Q 2034 3584 2315 3537 
Q 2597 3491 2834 3397 
z
" id="DejaVuSans-73" transform="scale(0.015625)"/>
       <path d="M 3116 1747 
Q 3116 2381 2855 2742 
Q 2594 3103 2138 3103 
Q 1681 3103 1420 2742 
Q 1159 2381 1159 1747 
Q 1159 1113 1420 752 
Q 1681 391 2138 391 
Q 2594 391 2855 752 
Q 3116 1113 3116 1747 
z
M 1159 2969 
Q 1341 3281 1617 3432 
Q 1894 3584 2278 3584 
Q 2916 3584 3314 3078 
Q 3713 2572 3713 1747 
Q 3713 922 3314 415 
Q 2916 -91 2278 -91 
Q 1894 -91 1617 61 
Q 1341 213 1159 525 
L 1159 0 
L 581 0 
L 581 4863 
L 1159 4863 
L 1159 2969 
z
" id="DejaVuSans-62" transform="scale(0.015625)"/>
       <path d="M 2059 -325 
Q 1816 -950 1584 -1140 
Q 1353 -1331 966 -1331 
L 506 -1331 
L 506 -850 
L 844 -850 
Q 1081 -850 1212 -737 
Q 1344 -625 1503 -206 
L 1606 56 
L 191 3500 
L 800 3500 
L 1894 763 
L 2988 3500 
L 3597 3500 
L 2059 -325 
z
" id="DejaVuSans-79" transform="scale(0.015625)"/>
       <path d="M 3328 2828 
Q 3544 3216 3844 3400 
Q 4144 3584 4550 3584 
Q 5097 3584 5394 3201 
Q 5691 2819 5691 2113 
L 5691 0 
L 5113 0 
L 5113 2094 
Q 5113 2597 4934 2840 
Q 4756 3084 4391 3084 
Q 3944 3084 3684 2787 
Q 3425 2491 3425 1978 
L 3425 0 
L 2847 0 
L 2847 2094 
Q 2847 2600 2669 2842 
Q 2491 3084 2119 3084 
Q 1678 3084 1418 2786 
Q 1159 2488 1159 1978 
L 1159 0 
L 581 0 
L 581 3500 
L 1159 3500 
L 1159 2956 
Q 1356 3278 1631 3431 
Q 1906 3584 2284 3584 
Q 2666 3584 2933 3390 
Q 3200 3197 3328 2828 
z
" id="DejaVuSans-6d" transform="scale(0.015625)"/>
       <path d="M 3513 2113 
L 3513 0 
L 2938 0 
L 2938 2094 
Q 2938 2591 2744 2837 
Q 2550 3084 2163 3084 
Q 1697 3084 1428 2787 
Q 1159 2491 1159 1978 
L 1159 0 
L 581 0 
L 581 4863 
L 1159 4863 
L 1159 2956 
Q 1366 3272 1645 3428 
Q 1925 3584 2291 3584 
Q 2894 3584 3203 3211 
Q 3513 2838 3513 2113 
z
" id="DejaVuSans-68" transform="scale(0.015625)"/>
      </defs>
      <use xlink:href="#DejaVuSans-50"/>
      <use x="58.552734" xlink:href="#DejaVuSans-72"/>
      <use x="97.416016" xlink:href="#DejaVuSans-6f"/>
      <use x="158.597656" xlink:href="#DejaVuSans-70"/>
      <use x="222.074219" xlink:href="#DejaVuSans-6f"/>
      <use x="283.255859" xlink:href="#DejaVuSans-72"/>
      <use x="324.369141" xlink:href="#DejaVuSans-74"/>
      <use x="363.578125" xlink:href="#DejaVuSans-69"/>
      <use x="391.361328" xlink:href="#DejaVuSans-6f"/>
      <use x="452.542969" xlink:href="#DejaVuSans-6e"/>
      <use x="515.921875" xlink:href="#DejaVuSans-20"/>
      <use x="547.708984" xlink:href="#DejaVuSans-6f"/>
      <use x="608.890625" xlink:href="#DejaVuSans-66"/>
      <use x="644.095703" xlink:href="#DejaVuSans-20"/>
      <use x="675.882812" xlink:href="#DejaVuSans-72"/>
      <use x="714.746094" xlink:href="#DejaVuSans-65"/>
      <use x="776.269531" xlink:href="#DejaVuSans-70"/>
      <use x="839.746094" xlink:href="#DejaVuSans-6f"/>
      <use x="900.927734" xlink:href="#DejaVuSans-72"/>
      <use x="942.041016" xlink:href="#DejaVuSans-74"/>
      <use x="981.25" xlink:href="#DejaVuSans-73"/>
      <use x="1033.349609" xlink:href="#DejaVuSans-20"/>
      <use x="1065.136719" xlink:href="#DejaVuSans-62"/>
      <use x="1128.613281" xlink:href="#DejaVuSans-79"/>
      <use x="1187.792969" xlink:href="#DejaVuSans-20"/>
      <use x="1219.580078" xlink:href="#DejaVuSans-6d"/>
      <use x="1316.992188" xlink:href="#DejaVuSans-6f"/>
      <use x="1378.173828" xlink:href="#DejaVuSans-6e"/>
      <use x="1441.552734" xlink:href="#DejaVuSans-74"/>
      <use x="1480.761719" xlink:href="#DejaVuSans-68"/>
     </g>
    </g>
   </g>
   <g id="matplotlib.axis_2">
    <g id="ytick_1">
     <g id="line2d_7">
      <defs>
       <path d="M 0 0 
L -3.5 0 
" id="m793737f8c4" style="stroke:#000000;stroke-width:0.8;"/>
      </defs>
      <g>
       <use style="stroke:#000000;stroke-width:0.8;" x="69.660938" xlink:href="#m793737f8c4" y="274.881818"/>
      </g>
     </g>
     <g id="text_8">
      <!-- 2013-08 -->
      <g transform="translate(20.878125 278.681037)scale(0.1 -0.1)">
       <defs>
        <path d="M 2597 2516 
Q 3050 2419 3304 2112 
Q 3559 1806 3559 1356 
Q 3559 666 3084 287 
Q 2609 -91 1734 -91 
Q 1441 -91 1130 -33 
Q 819 25 488 141 
L 488 750 
Q 750 597 1062 519 
Q 1375 441 1716 441 
Q 2309 441 2620 675 
Q 2931 909 2931 1356 
Q 2931 1769 2642 2001 
Q 2353 2234 1838 2234 
L 1294 2234 
L 1294 2753 
L 1863 2753 
Q 2328 2753 2575 2939 
Q 2822 3125 2822 3475 
Q 2822 3834 2567 4026 
Q 2313 4219 1838 4219 
Q 1578 4219 1281 4162 
Q 984 4106 628 3988 
L 628 4550 
Q 988 4650 1302 4700 
Q 1616 4750 1894 4750 
Q 2613 4750 3031 4423 
Q 3450 4097 3450 3541 
Q 3450 3153 3228 2886 
Q 3006 2619 2597 2516 
z
" id="DejaVuSans-33" transform="scale(0.015625)"/>
        <path d="M 313 2009 
L 1997 2009 
L 1997 1497 
L 313 1497 
L 313 2009 
z
" id="DejaVuSans-2d" transform="scale(0.015625)"/>
       </defs>
       <use xlink:href="#DejaVuSans-32"/>
       <use x="63.623047" xlink:href="#DejaVuSans-30"/>
       <use x="127.246094" xlink:href="#DejaVuSans-31"/>
       <use x="190.869141" xlink:href="#DejaVuSans-33"/>
       <use x="254.492188" xlink:href="#DejaVuSans-2d"/>
       <use x="290.576172" xlink:href="#DejaVuSans-30"/>
       <use x="354.199219" xlink:href="#DejaVuSans-38"/>
      </g>
     </g>
    </g>
    <g id="ytick_2">
     <g id="line2d_8">
      <g>
       <use style="stroke:#000000;stroke-width:0.8;" x="69.660938" xlink:href="#m793737f8c4" y="258.409091"/>
      </g>
     </g>
     <g id="text_9">
      <!-- 2014-02 -->
      <g transform="translate(20.878125 262.20831)scale(0.1 -0.1)">
       <use xlink:href="#DejaVuSans-32"/>
       <use x="63.623047" xlink:href="#DejaVuSans-30"/>
       <use x="127.246094" xlink:href="#DejaVuSans-31"/>
       <use x="190.869141" xlink:href="#DejaVuSans-34"/>
       <use x="254.492188" xlink:href="#DejaVuSans-2d"/>
       <use x="290.576172" xlink:href="#DejaVuSans-30"/>
       <use x="354.199219" xlink:href="#DejaVuSans-32"/>
      </g>
     </g>
    </g>
    <g id="ytick_3">
     <g id="line2d_9">
      <g>
       <use style="stroke:#000000;stroke-width:0.8;" x="69.660938" xlink:href="#m793737f8c4" y="241.936364"/>
      </g>
     </g>
     <g id="text_10">
      <!-- 2014-08 -->
      <g transform="translate(20.878125 245.735582)scale(0.1 -0.1)">
       <use xlink:href="#DejaVuSans-32"/>
       <use x="63.623047" xlink:href="#DejaVuSans-30"/>
       <use x="127.246094" xlink:href="#DejaVuSans-31"/>
       <use x="190.869141" xlink:href="#DejaVuSans-34"/>
       <use x="254.492188" xlink:href="#DejaVuSans-2d"/>
       <use x="290.576172" xlink:href="#DejaVuSans-30"/>
       <use x="354.199219" xlink:href="#DejaVuSans-38"/>
      </g>
     </g>
    </g>
    <g id="ytick_4">
     <g id="line2d_10">
      <g>
       <use style="stroke:#000000;stroke-width:0.8;" x="69.660938" xlink:href="#m793737f8c4" y="225.463636"/>
      </g>
     </g>
     <g id="text_11">
      <!-- 2015-02 -->
      <g transform="translate(20.878125 229.262855)scale(0.1 -0.1)">
       <defs>
        <path d="M 691 4666 
L 3169 4666 
L 3169 4134 
L 1269 4134 
L 1269 2991 
Q 1406 3038 1543 3061 
Q 1681 3084 1819 3084 
Q 2600 3084 3056 2656 
Q 3513 2228 3513 1497 
Q 3513 744 3044 326 
Q 2575 -91 1722 -91 
Q 1428 -91 1123 -41 
Q 819 9 494 109 
L 494 744 
Q 775 591 1075 516 
Q 1375 441 1709 441 
Q 2250 441 2565 725 
Q 2881 1009 2881 1497 
Q 2881 1984 2565 2268 
Q 2250 2553 1709 2553 
Q 1456 2553 1204 2497 
Q 953 2441 691 2322 
L 691 4666 
z
" id="DejaVuSans-35" transform="scale(0.015625)"/>
       </defs>
       <use xlink:href="#DejaVuSans-32"/>
       <use x="63.623047" xlink:href="#DejaVuSans-30"/>
       <use x="127.246094" xlink:href="#DejaVuSans-31"/>
       <use x="190.869141" xlink:href="#DejaVuSans-35"/>
       <use x="254.492188" xlink:href="#DejaVuSans-2d"/>
       <use x="290.576172" xlink:href="#DejaVuSans-30"/>
       <use x="354.199219" xlink:href="#DejaVuSans-32"/>
      </g>
     </g>
    </g>
    <g id="ytick_5">
     <g id="line2d_11">
      <g>
       <use style="stroke:#000000;stroke-width:0.8;" x="69.660938" xlink:href="#m793737f8c4" y="208.990909"/>
      </g>
     </g>
     <g id="text_12">
      <!-- 2015-08 -->
      <g transform="translate(20.878125 212.790128)scale(0.1 -0.1)">
       <use xlink:href="#DejaVuSans-32"/>
       <use x="63.623047" xlink:href="#DejaVuSans-30"/>
       <use x="127.246094" xlink:href="#DejaVuSans-31"/>
       <use x="190.869141" xlink:href="#DejaVuSans-35"/>
       <use x="254.492188" xlink:href="#DejaVuSans-2d"/>
       <use x="290.576172" xlink:href="#DejaVuSans-30"/>
       <use x="354.199219" xlink:href="#DejaVuSans-38"/>
      </g>
     </g>
    </g>
    <g id="ytick_6">
     <g id="line2d_12">
      <g>
       <use style="stroke:#000000;stroke-width:0.8;" x="69.660938" xlink:href="#m793737f8c4" y="192.518182"/>
      </g>
     </g>
     <g id="text_13">
      <!-- 2016-02 -->
      <g transform="translate(20.878125 196.317401)scale(0.1 -0.1)">
       <use xlink:href="#DejaVuSans-32"/>
       <use x="63.623047" xlink:href="#DejaVuSans-30"/>
       <use x="127.246094" xlink:href="#DejaVuSans-31"/>
       <use x="190.869141" xlink:href="#DejaVuSans-36"/>
       <use x="254.492188" xlink:href="#DejaVuSans-2d"/>
       <use x="290.576172" xlink:href="#DejaVuSans-30"/>
       <use x="354.199219" xlink:href="#DejaVuSans-32"/>
      </g>
     </g>
    </g>
    <g id="ytick_7">
     <g id="line2d_13">
      <g>
       <use style="stroke:#000000;stroke-width:0.8;" x="69.660938" xlink:href="#m793737f8c4" y="176.045455"/>
      </g>
     </g>
     <g id="text_14">
      <!-- 2016-08 -->
      <g transform="translate(20.878125 179.844673)scale(0.1 -0.1)">
       <use xlink:href="#DejaVuSans-32"/>
       <use x="63.623047" xlink:href="#DejaVuSans-30"/>
       <use x="127.246094" xlink:href="#DejaVuSans-31"/>
       <use x="190.869141" xlink:href="#DejaVuSans-36"/>
       <use x="254.492188" xlink:href="#DejaVuSans-2d"/>
       <use x="290.576172" xlink:href="#DejaVuSans-30"/>
       <use x="354.199219" xlink:href="#DejaVuSans-38"/>
      </g>
     </g>
    </g>
    <g id="ytick_8">
     <g id="line2d_14">
      <g>
       <use style="stroke:#000000;stroke-width:0.8;" x="69.660938" xlink:href="#m793737f8c4" y="159.572727"/>
      </g>
     </g>
     <g id="text_15">
      <!-- 2017-02 -->
      <g transform="translate(20.878125 163.371946)scale(0.1 -0.1)">
       <defs>
        <path d="M 525 4666 
L 3525 4666 
L 3525 4397 
L 1831 0 
L 1172 0 
L 2766 4134 
L 525 4134 
L 525 4666 
z
" id="DejaVuSans-37" transform="scale(0.015625)"/>
       </defs>
       <use xlink:href="#DejaVuSans-32"/>
       <use x="63.623047" xlink:href="#DejaVuSans-30"/>
       <use x="127.246094" xlink:href="#DejaVuSans-31"/>
       <use x="190.869141" xlink:href="#DejaVuSans-37"/>
       <use x="254.492188" xlink:href="#DejaVuSans-2d"/>
       <use x="290.576172" xlink:href="#DejaVuSans-30"/>
       <use x="354.199219" xlink:href="#DejaVuSans-32"/>
      </g>
     </g>
    </g>
    <g id="ytick_9">
     <g id="line2d_15">
      <g>
       <use style="stroke:#000000;stroke-width:0.8;" x="69.660938" xlink:href="#m793737f8c4" y="143.1"/>
      </g>
     </g>
     <g id="text_16">
      <!-- 2017-08 -->
      <g transform="translate(20.878125 146.899219)scale(0.1 -0.1)">
       <use xlink:href="#DejaVuSans-32"/>
       <use x="63.623047" xlink:href="#DejaVuSans-30"/>
       <use x="127.246094" xlink:href="#DejaVuSans-31"/>
       <use x="190.869141" xlink:href="#DejaVuSans-37"/>
       <use x="254.492188" xlink:href="#DejaVuSans-2d"/>
       <use x="290.576172" xlink:href="#DejaVuSans-30"/>
       <use x="354.199219" xlink:href="#DejaVuSans-38"/>
      </g>
     </g>
    </g>
    <g id="ytick_10">
     <g id="line2d_16">
      <g>
       <use style="stroke:#000000;stroke-width:0.8;" x="69.660938" xlink:href="#m793737f8c4" y="126.627273"/>
      </g>
     </g>
     <g id="text_17">
      <!-- 2018-02 -->
      <g transform="translate(20.878125 130.426491)scale(0.1 -0.1)">
       <use xlink:href="#DejaVuSans-32"/>
       <use x="63.623047" xlink:href="#DejaVuSans-30"/>
       <use x="127.246094" xlink:href="#DejaVuSans-31"/>
       <use x="190.869141" xlink:href="#DejaVuSans-38"/>
       <use x="254.492188" xlink:href="#DejaVuSans-2d"/>
       <use x="290.576172" xlink:href="#DejaVuSans-30"/>
       <use x="354.199219" xlink:href="#DejaVuSans-32"/>
      </g>
     </g>
    </g>
    <g id="ytick_11">
     <g id="line2d_17">
      <g>
       <use style="stroke:#000000;stroke-width:0.8;" x="69.660938" xlink:href="#m793737f8c4" y="110.154545"/>
      </g>
     </g>
     <g id="text_18">
      <!-- 2018-08 -->
      <g transform="translate(20.878125 113.953764)scale(0.1 -0.1)">
       <use xlink:href="#DejaVuSans-32"/>
       <use x="63.623047" xlink:href="#DejaVuSans-30"/>
       <use x="127.246094" xlink:href="#DejaVuSans-31"/>
       <use x="190.869141" xlink:href="#DejaVuSans-38"/>
       <use x="254.492188" xlink:href="#DejaVuSans-2d"/>
       <use x="290.576172" xlink:href="#DejaVuSans-30"/>
       <use x="354.199219" xlink:href="#DejaVuSans-38"/>
      </g>
     </g>
    </g>
    <g id="ytick_12">
     <g id="line2d_18">
      <g>
       <use style="stroke:#000000;stroke-width:0.8;" x="69.660938" xlink:href="#m793737f8c4" y="93.681818"/>
      </g>
     </g>
     <g id="text_19">
      <!-- 2019-02 -->
      <g transform="translate(20.878125 97.481037)scale(0.1 -0.1)">
       <defs>
        <path d="M 703 97 
L 703 672 
Q 941 559 1184 500 
Q 1428 441 1663 441 
Q 2288 441 2617 861 
Q 2947 1281 2994 2138 
Q 2813 1869 2534 1725 
Q 2256 1581 1919 1581 
Q 1219 1581 811 2004 
Q 403 2428 403 3163 
Q 403 3881 828 4315 
Q 1253 4750 1959 4750 
Q 2769 4750 3195 4129 
Q 3622 3509 3622 2328 
Q 3622 1225 3098 567 
Q 2575 -91 1691 -91 
Q 1453 -91 1209 -44 
Q 966 3 703 97 
z
M 1959 2075 
Q 2384 2075 2632 2365 
Q 2881 2656 2881 3163 
Q 2881 3666 2632 3958 
Q 2384 4250 1959 4250 
Q 1534 4250 1286 3958 
Q 1038 3666 1038 3163 
Q 1038 2656 1286 2365 
Q 1534 2075 1959 2075 
z
" id="DejaVuSans-39" transform="scale(0.015625)"/>
       </defs>
       <use xlink:href="#DejaVuSans-32"/>
       <use x="63.623047" xlink:href="#DejaVuSans-30"/>
       <use x="127.246094" xlink:href="#DejaVuSans-31"/>
       <use x="190.869141" xlink:href="#DejaVuSans-39"/>
       <use x="254.492188" xlink:href="#DejaVuSans-2d"/>
       <use x="290.576172" xlink:href="#DejaVuSans-30"/>
       <use x="354.199219" xlink:href="#DejaVuSans-32"/>
      </g>
     </g>
    </g>
    <g id="ytick_13">
     <g id="line2d_19">
      <g>
       <use style="stroke:#000000;stroke-width:0.8;" x="69.660938" xlink:href="#m793737f8c4" y="77.209091"/>
      </g>
     </g>
     <g id="text_20">
      <!-- 2019-08 -->
      <g transform="translate(20.878125 81.00831)scale(0.1 -0.1)">
       <use xlink:href="#DejaVuSans-32"/>
       <use x="63.623047" xlink:href="#DejaVuSans-30"/>
       <use x="127.246094" xlink:href="#DejaVuSans-31"/>
       <use x="190.869141" xlink:href="#DejaVuSans-39"/>
       <use x="254.492188" xlink:href="#DejaVuSans-2d"/>
       <use x="290.576172" xlink:href="#DejaVuSans-30"/>
       <use x="354.199219" xlink:href="#DejaVuSans-38"/>
      </g>
     </g>
    </g>
    <g id="ytick_14">
     <g id="line2d_20">
      <g>
       <use style="stroke:#000000;stroke-width:0.8;" x="69.660938" xlink:href="#m793737f8c4" y="60.736364"/>
      </g>
     </g>
     <g id="text_21">
      <!-- 2020-02 -->
      <g transform="translate(20.878125 64.535582)scale(0.1 -0.1)">
       <use xlink:href="#DejaVuSans-32"/>
       <use x="63.623047" xlink:href="#DejaVuSans-30"/>
       <use x="127.246094" xlink:href="#DejaVuSans-32"/>
       <use x="190.869141" xlink:href="#DejaVuSans-30"/>
       <use x="254.492188" xlink:href="#DejaVuSans-2d"/>
       <use x="290.576172" xlink:href="#DejaVuSans-30"/>
       <use x="354.199219" xlink:href="#DejaVuSans-32"/>
      </g>
     </g>
    </g>
    <g id="ytick_15">
     <g id="line2d_21">
      <g>
       <use style="stroke:#000000;stroke-width:0.8;" x="69.660938" xlink:href="#m793737f8c4" y="44.263636"/>
      </g>
     </g>
     <g id="text_22">
      <!-- 2020-08 -->
      <g transform="translate(20.878125 48.062855)scale(0.1 -0.1)">
       <use xlink:href="#DejaVuSans-32"/>
       <use x="63.623047" xlink:href="#DejaVuSans-30"/>
       <use x="127.246094" xlink:href="#DejaVuSans-32"/>
       <use x="190.869141" xlink:href="#DejaVuSans-30"/>
       <use x="254.492188" xlink:href="#DejaVuSans-2d"/>
       <use x="290.576172" xlink:href="#DejaVuSans-30"/>
       <use x="354.199219" xlink:href="#DejaVuSans-38"/>
      </g>
     </g>
    </g>
    <g id="ytick_16">
     <g id="line2d_22">
      <g>
       <use style="stroke:#000000;stroke-width:0.8;" x="69.660938" xlink:href="#m793737f8c4" y="27.790909"/>
      </g>
     </g>
     <g id="text_23">
      <!-- 2021-02 -->
      <g transform="translate(20.878125 31.590128)scale(0.1 -0.1)">
       <use xlink:href="#DejaVuSans-32"/>
       <use x="63.623047" xlink:href="#DejaVuSans-30"/>
       <use x="127.246094" xlink:href="#DejaVuSans-32"/>
       <use x="190.869141" xlink:href="#DejaVuSans-31"/>
       <use x="254.492188" xlink:href="#DejaVuSans-2d"/>
       <use x="290.576172" xlink:href="#DejaVuSans-30"/>
       <use x="354.199219" xlink:href="#DejaVuSans-32"/>
      </g>
     </g>
    </g>
    <g id="ytick_17">
     <g id="line2d_23">
      <g>
       <use style="stroke:#000000;stroke-width:0.8;" x="69.660938" xlink:href="#m793737f8c4" y="11.318182"/>
      </g>
     </g>
     <g id="text_24">
      <!-- 2021-08 -->
      <g transform="translate(20.878125 15.117401)scale(0.1 -0.1)">
       <use xlink:href="#DejaVuSans-32"/>
       <use x="63.623047" xlink:href="#DejaVuSans-30"/>
       <use x="127.246094" xlink:href="#DejaVuSans-32"/>
       <use x="190.869141" xlink:href="#DejaVuSans-31"/>
       <use x="254.492188" xlink:href="#DejaVuSans-2d"/>
       <use x="290.576172" xlink:href="#DejaVuSans-30"/>
       <use x="354.199219" xlink:href="#DejaVuSans-38"/>
      </g>
     </g>
    </g>
    <g id="text_25">
     <!-- Month -->
     <g transform="translate(14.798437 158.771094)rotate(-90)scale(0.1 -0.1)">
      <defs>
       <path d="M 628 4666 
L 1569 4666 
L 2759 1491 
L 3956 4666 
L 4897 4666 
L 4897 0 
L 4281 0 
L 4281 4097 
L 3078 897 
L 2444 897 
L 1241 4097 
L 1241 0 
L 628 0 
L 628 4666 
z
" id="DejaVuSans-4d" transform="scale(0.015625)"/>
      </defs>
      <use xlink:href="#DejaVuSans-4d"/>
      <use x="86.279297" xlink:href="#DejaVuSans-6f"/>
      <use x="147.460938" xlink:href="#DejaVuSans-6e"/>
      <use x="210.839844" xlink:href="#DejaVuSans-74"/>
      <use x="250.048828" xlink:href="#DejaVuSans-68"/>
     </g>
    </g>
   </g>
   <g id="patch_300">
    <path d="M 69.660938 279 
L 69.660938 7.2 
" style="fill:none;stroke:#000000;stroke-linecap:square;stroke-linejoin:miter;stroke-width:0.8;"/>
   </g>
   <g id="patch_301">
    <path d="M 237.060937 279 
L 237.060937 7.2 
" style="fill:none;stroke:#000000;stroke-linecap:square;stroke-linejoin:miter;stroke-width:0.8;"/>
   </g>
   <g id="patch_302">
    <path d="M 69.660938 279 
L 237.060937 279 
" style="fill:none;stroke:#000000;stroke-linecap:square;stroke-linejoin:miter;stroke-width:0.8;"/>
   </g>
   <g id="patch_303">
    <path d="M 69.660938 7.2 
L 237.060937 7.2 
" style="fill:none;stroke:#000000;stroke-linecap:square;stroke-linejoin:miter;stroke-width:0.8;"/>
   </g>
   <g id="legend_1">
    <g id="patch_304">
     <path d="M 55.8025 371.804375 
L 246.800937 371.804375 
Q 248.800937 371.804375 248.800937 369.804375 
L 248.800937 326.77 
Q 248.800937 324.77 246.800937 324.77 
L 55.8025 324.77 
Q 53.8025 324.77 53.8025 326.77 
L 53.8025 369.804375 
Q 53.8025 371.804375 55.8025 371.804375 
z
" style="fill:#ffffff;opacity:0.8;stroke:#cccccc;stroke-linejoin:miter;"/>
    </g>
    <g id="patch_305">
     <path d="M 57.8025 336.368437 
L 77.8025 336.368437 
L 77.8025 329.368437 
L 57.8025 329.368437 
z
" style="fill:#1f77b4;"/>
    </g>
    <g id="text_26">
     <!-- No responses -->
     <g transform="translate(85.8025 336.368437)scale(0.1 -0.1)">
      <defs>
       <path d="M 628 4666 
L 1478 4666 
L 3547 763 
L 3547 4666 
L 4159 4666 
L 4159 0 
L 3309 0 
L 1241 3903 
L 1241 0 
L 628 0 
L 628 4666 
z
" id="DejaVuSans-4e" transform="scale(0.015625)"/>
      </defs>
      <use xlink:href="#DejaVuSans-4e"/>
      <use x="74.804688" xlink:href="#DejaVuSans-6f"/>
      <use x="135.986328" xlink:href="#DejaVuSans-20"/>
      <use x="167.773438" xlink:href="#DejaVuSans-72"/>
      <use x="206.636719" xlink:href="#DejaVuSans-65"/>
      <use x="268.160156" xlink:href="#DejaVuSans-73"/>
      <use x="320.259766" xlink:href="#DejaVuSans-70"/>
      <use x="383.736328" xlink:href="#DejaVuSans-6f"/>
      <use x="444.917969" xlink:href="#DejaVuSans-6e"/>
      <use x="508.296875" xlink:href="#DejaVuSans-73"/>
      <use x="560.396484" xlink:href="#DejaVuSans-65"/>
      <use x="621.919922" xlink:href="#DejaVuSans-73"/>
     </g>
    </g>
    <g id="patch_306">
     <path d="M 57.8025 351.046562 
L 77.8025 351.046562 
L 77.8025 344.046562 
L 57.8025 344.046562 
z
" style="fill:#ff7f0e;"/>
    </g>
    <g id="text_27">
     <!-- Fewer responses than expected -->
     <g transform="translate(85.8025 351.046562)scale(0.1 -0.1)">
      <defs>
       <path d="M 628 4666 
L 3309 4666 
L 3309 4134 
L 1259 4134 
L 1259 2759 
L 3109 2759 
L 3109 2228 
L 1259 2228 
L 1259 0 
L 628 0 
L 628 4666 
z
" id="DejaVuSans-46" transform="scale(0.015625)"/>
       <path d="M 269 3500 
L 844 3500 
L 1563 769 
L 2278 3500 
L 2956 3500 
L 3675 769 
L 4391 3500 
L 4966 3500 
L 4050 0 
L 3372 0 
L 2619 2869 
L 1863 0 
L 1184 0 
L 269 3500 
z
" id="DejaVuSans-77" transform="scale(0.015625)"/>
       <path d="M 2194 1759 
Q 1497 1759 1228 1600 
Q 959 1441 959 1056 
Q 959 750 1161 570 
Q 1363 391 1709 391 
Q 2188 391 2477 730 
Q 2766 1069 2766 1631 
L 2766 1759 
L 2194 1759 
z
M 3341 1997 
L 3341 0 
L 2766 0 
L 2766 531 
Q 2569 213 2275 61 
Q 1981 -91 1556 -91 
Q 1019 -91 701 211 
Q 384 513 384 1019 
Q 384 1609 779 1909 
Q 1175 2209 1959 2209 
L 2766 2209 
L 2766 2266 
Q 2766 2663 2505 2880 
Q 2244 3097 1772 3097 
Q 1472 3097 1187 3025 
Q 903 2953 641 2809 
L 641 3341 
Q 956 3463 1253 3523 
Q 1550 3584 1831 3584 
Q 2591 3584 2966 3190 
Q 3341 2797 3341 1997 
z
" id="DejaVuSans-61" transform="scale(0.015625)"/>
       <path d="M 3513 3500 
L 2247 1797 
L 3578 0 
L 2900 0 
L 1881 1375 
L 863 0 
L 184 0 
L 1544 1831 
L 300 3500 
L 978 3500 
L 1906 2253 
L 2834 3500 
L 3513 3500 
z
" id="DejaVuSans-78" transform="scale(0.015625)"/>
       <path d="M 3122 3366 
L 3122 2828 
Q 2878 2963 2633 3030 
Q 2388 3097 2138 3097 
Q 1578 3097 1268 2742 
Q 959 2388 959 1747 
Q 959 1106 1268 751 
Q 1578 397 2138 397 
Q 2388 397 2633 464 
Q 2878 531 3122 666 
L 3122 134 
Q 2881 22 2623 -34 
Q 2366 -91 2075 -91 
Q 1284 -91 818 406 
Q 353 903 353 1747 
Q 353 2603 823 3093 
Q 1294 3584 2113 3584 
Q 2378 3584 2631 3529 
Q 2884 3475 3122 3366 
z
" id="DejaVuSans-63" transform="scale(0.015625)"/>
       <path d="M 2906 2969 
L 2906 4863 
L 3481 4863 
L 3481 0 
L 2906 0 
L 2906 525 
Q 2725 213 2448 61 
Q 2172 -91 1784 -91 
Q 1150 -91 751 415 
Q 353 922 353 1747 
Q 353 2572 751 3078 
Q 1150 3584 1784 3584 
Q 2172 3584 2448 3432 
Q 2725 3281 2906 2969 
z
M 947 1747 
Q 947 1113 1208 752 
Q 1469 391 1925 391 
Q 2381 391 2643 752 
Q 2906 1113 2906 1747 
Q 2906 2381 2643 2742 
Q 2381 3103 1925 3103 
Q 1469 3103 1208 2742 
Q 947 2381 947 1747 
z
" id="DejaVuSans-64" transform="scale(0.015625)"/>
      </defs>
      <use xlink:href="#DejaVuSans-46"/>
      <use x="52.019531" xlink:href="#DejaVuSans-65"/>
      <use x="113.542969" xlink:href="#DejaVuSans-77"/>
      <use x="195.330078" xlink:href="#DejaVuSans-65"/>
      <use x="256.853516" xlink:href="#DejaVuSans-72"/>
      <use x="297.966797" xlink:href="#DejaVuSans-20"/>
      <use x="329.753906" xlink:href="#DejaVuSans-72"/>
      <use x="368.617188" xlink:href="#DejaVuSans-65"/>
      <use x="430.140625" xlink:href="#DejaVuSans-73"/>
      <use x="482.240234" xlink:href="#DejaVuSans-70"/>
      <use x="545.716797" xlink:href="#DejaVuSans-6f"/>
      <use x="606.898438" xlink:href="#DejaVuSans-6e"/>
      <use x="670.277344" xlink:href="#DejaVuSans-73"/>
      <use x="722.376953" xlink:href="#DejaVuSans-65"/>
      <use x="783.900391" xlink:href="#DejaVuSans-73"/>
      <use x="836" xlink:href="#DejaVuSans-20"/>
      <use x="867.787109" xlink:href="#DejaVuSans-74"/>
      <use x="906.996094" xlink:href="#DejaVuSans-68"/>
      <use x="970.375" xlink:href="#DejaVuSans-61"/>
      <use x="1031.654297" xlink:href="#DejaVuSans-6e"/>
      <use x="1095.033203" xlink:href="#DejaVuSans-20"/>
      <use x="1126.820312" xlink:href="#DejaVuSans-65"/>
      <use x="1186.59375" xlink:href="#DejaVuSans-78"/>
      <use x="1245.773438" xlink:href="#DejaVuSans-70"/>
      <use x="1309.25" xlink:href="#DejaVuSans-65"/>
      <use x="1370.773438" xlink:href="#DejaVuSans-63"/>
      <use x="1425.753906" xlink:href="#DejaVuSans-74"/>
      <use x="1464.962891" xlink:href="#DejaVuSans-65"/>
      <use x="1526.486328" xlink:href="#DejaVuSans-64"/>
     </g>
    </g>
    <g id="patch_307">
     <path d="M 57.8025 365.724687 
L 77.8025 365.724687 
L 77.8025 358.724687 
L 57.8025 358.724687 
z
" style="fill:#2ca02c;"/>
    </g>
    <g id="text_28">
     <!-- Expected or greater number -->
     <g transform="translate(85.8025 365.724687)scale(0.1 -0.1)">
      <defs>
       <path d="M 628 4666 
L 3578 4666 
L 3578 4134 
L 1259 4134 
L 1259 2753 
L 3481 2753 
L 3481 2222 
L 1259 2222 
L 1259 531 
L 3634 531 
L 3634 0 
L 628 0 
L 628 4666 
z
" id="DejaVuSans-45" transform="scale(0.015625)"/>
       <path d="M 2906 1791 
Q 2906 2416 2648 2759 
Q 2391 3103 1925 3103 
Q 1463 3103 1205 2759 
Q 947 2416 947 1791 
Q 947 1169 1205 825 
Q 1463 481 1925 481 
Q 2391 481 2648 825 
Q 2906 1169 2906 1791 
z
M 3481 434 
Q 3481 -459 3084 -895 
Q 2688 -1331 1869 -1331 
Q 1566 -1331 1297 -1286 
Q 1028 -1241 775 -1147 
L 775 -588 
Q 1028 -725 1275 -790 
Q 1522 -856 1778 -856 
Q 2344 -856 2625 -561 
Q 2906 -266 2906 331 
L 2906 616 
Q 2728 306 2450 153 
Q 2172 0 1784 0 
Q 1141 0 747 490 
Q 353 981 353 1791 
Q 353 2603 747 3093 
Q 1141 3584 1784 3584 
Q 2172 3584 2450 3431 
Q 2728 3278 2906 2969 
L 2906 3500 
L 3481 3500 
L 3481 434 
z
" id="DejaVuSans-67" transform="scale(0.015625)"/>
       <path d="M 544 1381 
L 544 3500 
L 1119 3500 
L 1119 1403 
Q 1119 906 1312 657 
Q 1506 409 1894 409 
Q 2359 409 2629 706 
Q 2900 1003 2900 1516 
L 2900 3500 
L 3475 3500 
L 3475 0 
L 2900 0 
L 2900 538 
Q 2691 219 2414 64 
Q 2138 -91 1772 -91 
Q 1169 -91 856 284 
Q 544 659 544 1381 
z
M 1991 3584 
L 1991 3584 
z
" id="DejaVuSans-75" transform="scale(0.015625)"/>
      </defs>
      <use xlink:href="#DejaVuSans-45"/>
      <use x="63.183594" xlink:href="#DejaVuSans-78"/>
      <use x="122.363281" xlink:href="#DejaVuSans-70"/>
      <use x="185.839844" xlink:href="#DejaVuSans-65"/>
      <use x="247.363281" xlink:href="#DejaVuSans-63"/>
      <use x="302.34375" xlink:href="#DejaVuSans-74"/>
      <use x="341.552734" xlink:href="#DejaVuSans-65"/>
      <use x="403.076172" xlink:href="#DejaVuSans-64"/>
      <use x="466.552734" xlink:href="#DejaVuSans-20"/>
      <use x="498.339844" xlink:href="#DejaVuSans-6f"/>
      <use x="559.521484" xlink:href="#DejaVuSans-72"/>
      <use x="600.634766" xlink:href="#DejaVuSans-20"/>
      <use x="632.421875" xlink:href="#DejaVuSans-67"/>
      <use x="695.898438" xlink:href="#DejaVuSans-72"/>
      <use x="734.761719" xlink:href="#DejaVuSans-65"/>
      <use x="796.285156" xlink:href="#DejaVuSans-61"/>
      <use x="857.564453" xlink:href="#DejaVuSans-74"/>
      <use x="896.773438" xlink:href="#DejaVuSans-65"/>
      <use x="958.296875" xlink:href="#DejaVuSans-72"/>
      <use x="999.410156" xlink:href="#DejaVuSans-20"/>
      <use x="1031.197266" xlink:href="#DejaVuSans-6e"/>
      <use x="1094.576172" xlink:href="#DejaVuSans-75"/>
      <use x="1157.955078" xlink:href="#DejaVuSans-6d"/>
      <use x="1255.367188" xlink:href="#DejaVuSans-62"/>
      <use x="1318.84375" xlink:href="#DejaVuSans-65"/>
      <use x="1380.367188" xlink:href="#DejaVuSans-72"/>
     </g>
    </g>
   </g>
  </g>
 </g>
 <defs>
  <clipPath id="p24cc79eed5">
   <rect height="271.8" width="167.4" x="69.660938" y="7.2"/>
  </clipPath>
 </defs>
</svg>
